<svg width="13" height="11" viewBox="0 0 13 11" fill="none" xmlns="http://www.w3.org/2000/svg">
<path d="M0.767663 0.0237732C0.521569 0.100336 0.267273 0.332758 0.174304 0.567914C0.127819 0.690961 0.125085 0.879633 0.116882 4.34682C0.111413 6.8433 0.119616 8.05737 0.138757 8.18588C0.212585 8.66166 0.527038 8.93237 1.04384 8.96244L1.28719 8.97612V9.33979V9.70619H0.71571C0.179773 9.70619 0.141491 9.70893 0.0731319 9.76362C-0.0171024 9.83471 -0.0253055 9.97963 0.0567257 10.0617C0.111413 10.1164 0.14696 10.1164 6.31844 10.1164C12.4899 10.1164 12.5255 10.1164 12.5802 10.0617C12.6622 9.97963 12.654 9.83471 12.5638 9.76362C12.4954 9.70893 12.4571 9.70619 11.9212 9.70619H11.3497V9.33979V8.97612L11.5931 8.96244C12.1099 8.93237 12.4243 8.66166 12.4981 8.18588C12.5173 8.05737 12.5255 6.8433 12.52 4.34682C12.5091 0.152288 12.5364 0.554242 12.2411 0.258929C11.954 -0.0281801 12.572 -0.000836372 6.30751 0.00189781C3.29969 0.00189781 0.805944 0.0128355 0.767663 0.0237732ZM11.8419 0.464007C11.9759 0.532367 12.0524 0.639008 12.088 0.808538C12.1071 0.898773 12.1153 2.13744 12.1099 4.56557C12.1016 7.92612 12.0989 8.19409 12.0552 8.27338C11.9513 8.46479 11.7653 8.55776 11.4946 8.55776H11.3497V6.37299C11.3497 4.20737 11.3497 4.19096 11.2923 4.11713L11.2376 4.04604H10.3243C9.41923 4.04604 9.41102 4.04604 9.3536 4.10619C9.29891 4.16635 9.29891 4.18823 9.29891 6.36205V8.55776H8.98446H8.67001V7.57338C8.67001 6.62455 8.66727 6.58627 8.61532 6.53432C8.56337 6.48237 8.52508 6.47963 7.66102 6.47963C6.8161 6.47963 6.75868 6.48237 6.69852 6.53159L6.6329 6.58354L6.62469 7.57065L6.61649 8.55776H6.31844H6.01766L6.01219 6.59174C6.00399 4.70229 6.00126 4.62299 5.95204 4.5683C5.90008 4.51088 5.88094 4.51088 4.9868 4.51088C4.1118 4.51088 4.07352 4.51362 4.02157 4.56557C3.96688 4.62026 3.96688 4.6558 3.96688 6.58901V8.55776H3.65243H3.33798V7.86049C3.33798 7.19877 3.33524 7.16049 3.28329 7.10854C3.23133 7.05659 3.19305 7.05385 2.31532 7.05385H1.3993L1.34462 7.12494C1.28993 7.1933 1.28719 7.23159 1.28719 7.8769V8.55776H1.14501C0.871569 8.55776 0.685632 8.46479 0.581726 8.27338C0.537976 8.19409 0.535241 7.92612 0.527038 4.56557C0.521569 2.13744 0.529773 0.898773 0.548913 0.808538C0.58446 0.641742 0.661023 0.532367 0.789538 0.464007C0.887976 0.412054 1.00282 0.412054 6.31298 0.40932C11.6614 0.40932 11.7352 0.40932 11.8419 0.464007ZM10.9395 7.08119V9.70619H10.3243H9.70907V7.08119V4.45619H10.3243H10.9395V7.08119ZM5.60751 7.31362V9.70619H4.99227H4.37704V7.31362V4.92104H4.99227H5.60751V7.31362ZM8.25985 8.29799V9.70619H7.64462H7.02938V8.29799V6.88979H7.64462H8.25985V8.29799ZM2.92782 8.5851V9.70619H2.31259H1.69735V8.5851V7.46401H2.31259H2.92782V8.5851ZM3.96688 9.33705V9.70619H3.65243H3.33798V9.33705V8.96791H3.65243H3.96688V9.33705ZM6.61923 9.33705V9.70619H6.31844H6.01766V9.33705V8.96791H6.31844H6.61923V9.33705ZM9.29891 9.33705V9.70619H8.98446H8.67001V9.33705V8.96791H8.98446H9.29891V9.33705Z" fill="#7D8A95"/>
<path d="M4.75339 1.6475C4.40613 1.74594 4.17644 2.05766 4.17644 2.43227C4.17644 2.53618 4.19558 2.65375 4.22293 2.71938L4.26941 2.82602L3.49832 3.59711L2.72722 4.36821L2.60418 4.31352C2.43191 4.23696 2.11746 4.25336 1.93425 4.34633C1.68543 4.47211 1.5323 4.71274 1.51043 5.00532C1.49402 5.24594 1.55418 5.42641 1.71004 5.59868C2.01082 5.935 2.54675 5.95688 2.86668 5.65063C3.09089 5.43735 3.17566 5.07094 3.06902 4.79203L3.01433 4.64985L3.79089 3.89516L4.56746 3.13774L4.67683 3.18149C4.82175 3.23891 5.13347 3.23891 5.27839 3.18149L5.38777 3.13774L6.16433 3.89243L6.93816 4.64711L6.88347 4.80297C6.75496 5.18852 6.92996 5.60688 7.29636 5.78735C7.51238 5.89399 7.79675 5.89399 8.00183 5.78735C8.17683 5.69985 8.3491 5.50571 8.40652 5.33891C8.46394 5.17485 8.46121 4.93696 8.40652 4.77289C8.38191 4.7018 8.3655 4.64164 8.37097 4.63891C8.37644 4.63344 8.72371 4.29438 9.13933 3.88422L9.89675 3.135L10.0089 3.18149C10.1811 3.24985 10.4819 3.23891 10.6542 3.15961C10.9577 3.01743 11.1163 2.7686 11.1163 2.43227C11.1163 2.09594 10.9632 1.84438 10.6706 1.70219C10.5393 1.6393 10.4819 1.62563 10.3096 1.62836C10.1866 1.6311 10.0636 1.65024 10.0007 1.67758C9.84754 1.74594 9.65339 1.93461 9.5823 2.09047C9.50574 2.25454 9.4948 2.52524 9.55769 2.70844L9.60144 2.82602L8.83582 3.58891L8.07293 4.35453L7.94168 4.30805C7.77488 4.25336 7.49871 4.25063 7.35925 4.30805C7.25535 4.34907 7.24441 4.34907 7.17332 4.29711C7.1323 4.2643 6.77957 3.9225 6.39129 3.53422L5.68582 2.82602L5.7323 2.71938C5.75964 2.65375 5.77879 2.53618 5.77879 2.4268C5.77879 2.10141 5.58464 1.80063 5.2948 1.68032C5.15261 1.62016 4.90379 1.60649 4.75339 1.6475ZM5.1991 2.10688C5.51355 2.3311 5.36316 2.81508 4.97761 2.81508C4.77254 2.81508 4.63582 2.70024 4.58386 2.47875C4.54832 2.33383 4.6905 2.11235 4.86824 2.04125C4.94207 2.01118 5.1116 2.04399 5.1991 2.10688ZM10.5257 2.09868C10.7034 2.22993 10.7608 2.42954 10.6706 2.59633C10.5257 2.86157 10.1729 2.89438 9.99793 2.65649C9.91863 2.54985 9.91043 2.3311 9.98152 2.21899C10.0936 2.03852 10.3671 1.97836 10.5257 2.09868ZM2.50847 4.72914C2.78464 4.89594 2.76277 5.27328 2.47019 5.41547C2.13386 5.57953 1.77566 5.19125 1.9698 4.87133C2.08464 4.68539 2.33074 4.61977 2.50847 4.72914ZM7.89246 4.75922C8.00457 4.86313 8.04832 4.96977 8.03191 5.10102C8.0155 5.25414 7.93074 5.36899 7.78855 5.42641C7.64089 5.48383 7.52058 5.46196 7.39754 5.35532C7.18699 5.16938 7.20886 4.87407 7.44675 4.72641C7.5698 4.64985 7.79402 4.66625 7.89246 4.75922Z" fill="#7D8A95"/>
</svg>
