<svg width="237" height="42" viewBox="0 0 237 42" fill="none" xmlns="http://www.w3.org/2000/svg">
<g clip-path="url(#clip0_2241_228)">
<path d="M3.6796 20.8961C3.66405 18.5534 2.91262 16.5512 0.990006 15.0318C-0.0827206 14.1832 -0.253735 13.0093 0.352589 11.8253C0.559879 11.4238 0.725711 11.4035 1.09883 11.6169C3.52931 13.0093 5.97533 14.3814 8.41618 15.7636C9.56145 16.4089 10.6705 17.1153 11.8468 17.6997C14.4587 18.9955 14.7074 22.7458 11.966 24.2195C8.35917 26.1607 4.81969 28.2289 1.27503 30.2717C0.704982 30.602 0.476963 30.4547 0.254126 29.9211C-0.227824 28.7676 -0.0153513 27.7106 0.90709 26.9178C2.87116 25.2307 3.68478 23.4725 3.68478 20.8859L3.6796 20.8961Z" fill="#684199"/>
<path d="M20.8126 34.9519C20.8126 32.9193 20.7453 30.8815 20.8282 28.8539C20.937 26.1606 23.7095 24.626 26.1296 25.937C29.3271 27.6699 32.4727 29.4993 35.6391 31.283C36.1365 31.5624 36.6185 31.8623 37.1315 32.1163C37.5928 32.345 37.5876 32.5788 37.2974 32.9701C36.5667 33.9508 35.4991 34.3624 34.2709 33.8899C30.4309 32.406 25.9327 34.8706 24.4609 37.7773C24.1345 38.4227 23.9168 39.0935 23.7924 39.7998C23.5851 40.9839 22.6886 41.7918 21.5381 41.924C20.9681 41.99 20.7556 41.8579 20.766 41.2532C20.8023 39.1545 20.7815 37.0557 20.7815 34.957C20.7919 34.957 20.7971 34.957 20.8074 34.957L20.8126 34.9519Z" fill="#684199"/>
<path d="M18.5166 6.78957C18.5166 8.97468 18.5425 11.1598 18.5114 13.3449C18.4803 15.4741 15.7389 17.4001 13.2877 16.0687C9.55131 14.036 5.87709 11.8966 2.17178 9.81316C1.74683 9.57432 1.75201 9.36089 2.03704 9.00517C2.88693 7.95835 3.92856 7.6382 5.20339 8.08539C9.46321 9.5794 14.661 6.69301 15.5213 2.35327C15.8011 0.92532 16.5836 0.173232 17.8792 0.0207822C18.387 -0.0401978 18.5892 0.0715989 18.584 0.620419C18.5529 2.6785 18.5736 4.73149 18.5736 6.78957C18.5581 6.78957 18.5425 6.78957 18.5218 6.78957H18.5166Z" fill="#684199"/>
<path d="M20.7334 6.845C20.7334 4.79201 20.7541 2.73393 20.723 0.680939C20.7126 0.07622 20.9303 -0.0609851 21.5003 0.0203216C22.7026 0.193098 23.4696 0.894369 23.7546 2.22577C24.4698 5.5695 26.7551 7.3735 29.9422 8.26787C31.357 8.66424 32.7614 8.57277 34.1554 8.05952C35.4717 7.57676 36.617 7.9833 37.3477 9.04029C37.5809 9.37568 37.5601 9.5637 37.2129 9.76188C33.4714 11.8708 29.7609 14.0254 25.9882 16.0835C23.6769 17.3488 20.837 15.6769 20.7386 13.0751C20.7386 13.0294 20.7386 12.9887 20.7386 12.943C20.7386 10.9103 20.7386 8.87767 20.7386 6.845H20.7334Z" fill="#684199"/>
<path d="M18.6277 35.0785C18.6277 37.1569 18.6122 39.2302 18.6381 41.3086C18.6433 41.8523 18.4463 41.9743 17.9385 41.9286C16.8191 41.8269 15.9174 41.1307 15.6997 40.0483C14.9431 36.2828 12.409 34.3264 8.77625 33.5387C7.63098 33.2897 6.45979 33.4269 5.33005 33.8436C3.89975 34.3721 2.74411 33.9961 1.98232 32.868C1.76985 32.5529 1.79058 32.4004 2.12224 32.2175C5.86383 30.1137 9.5795 27.9641 13.3418 25.901C15.7049 24.6052 18.5448 26.2618 18.607 28.9195C18.6536 30.9725 18.6174 33.0306 18.6174 35.0836H18.6225L18.6277 35.0785Z" fill="#684199"/>
<path d="M44.173 3.69434H43.7792C43.6962 3.69434 43.6289 3.76032 43.6289 3.8417V38.0972C43.6289 38.1786 43.6962 38.2446 43.7792 38.2446H44.173C44.256 38.2446 44.3233 38.1786 44.3233 38.0972V3.8417C44.3233 3.76032 44.256 3.69434 44.173 3.69434Z" fill="#2D2828"/>
<path d="M71.1965 29.5235C68.7298 31.9424 65.4546 33.1518 62.2105 33.1518C53.893 33.1518 49.5554 27.4502 49.5243 20.9202C49.4518 14.4564 53.7531 8.40918 62.2105 8.40918C65.4546 8.40918 68.7298 9.61862 71.1965 12.0375L69.8906 13.1453C67.7762 11.072 64.9934 10.0709 62.2053 10.0709C55.0175 10.0709 51.3174 15.0458 51.3485 20.8542C51.421 26.5203 55.0849 31.4291 62.2053 31.4291C64.9882 31.4291 67.8073 30.3925 69.9217 28.3547L71.1913 29.5286L71.1965 29.5235Z" fill="#231F20"/>
<path d="M76.6905 8.68359V32.8774H74.9648V8.68359H76.6905Z" fill="#231F20"/>
<path d="M98.2586 15.8029V32.8773H96.5329V29.249C94.8435 31.9118 92.2317 33.1568 89.4125 33.1568C84.5464 33.1568 80.5664 29.564 80.5664 24.3452C80.5664 19.1263 84.5464 15.5996 89.4125 15.5996C92.2317 15.5996 95.0871 16.8802 96.5329 19.5379V15.808H98.2586V15.8029ZM82.2921 24.3401C82.2921 28.6239 85.4636 31.4951 89.4125 31.4951C99.1033 31.4951 99.1033 17.2207 89.4125 17.2207C85.4636 17.2207 82.2921 20.0562 82.2921 24.3401Z" fill="#231F20"/>
<path d="M114.893 18.9134C113.131 17.394 111.405 17.1145 109.467 17.1145C106.752 17.0789 104.145 18.08 104.218 20.26C104.29 22.5417 107.322 22.9889 109.504 23.37C112.608 23.8883 116.867 24.4067 116.691 28.3805C116.588 32.146 112.603 33.1522 109.535 33.1522C106.467 33.1522 103.435 32.0139 101.922 29.7323L103.192 28.6245C104.637 30.6622 107.244 31.5261 109.571 31.5261C111.685 31.5261 114.893 30.9722 114.997 28.2789C115.069 25.8245 112.178 25.3417 109.322 24.8894C105.938 24.3355 102.59 23.7156 102.554 20.2956C102.518 16.9417 105.938 15.4934 109.462 15.5239C112.001 15.5239 114.219 16.215 115.945 17.8056L114.888 18.9134H114.893Z" fill="#231F20"/>
<path d="M132.479 18.9134C130.717 17.394 128.991 17.1145 127.053 17.1145C124.338 17.0789 121.731 18.08 121.804 20.26C121.876 22.5417 124.908 22.9889 127.089 23.37C130.194 23.8883 134.453 24.4067 134.277 28.3805C134.174 32.146 130.188 33.1522 127.121 33.1522C124.053 33.1522 121.021 32.0139 119.508 29.7323L120.777 28.6245C122.223 30.6622 124.83 31.5261 127.157 31.5261C129.271 31.5261 132.479 30.9722 132.583 28.2789C132.655 25.8245 129.763 25.3417 126.908 24.8894C123.524 24.3355 120.176 23.7156 120.14 20.2956C120.104 16.9417 123.524 15.4934 127.048 15.5239C129.587 15.5239 131.805 16.215 133.531 17.8056L132.474 18.9134H132.479Z" fill="#231F20"/>
<path d="M146.169 14.2991C147.283 13.7096 148.558 13.4199 149.994 13.4199C151.662 13.4199 153.17 13.8214 154.523 14.6294C155.875 15.4373 156.943 16.5807 157.731 18.0696C158.518 19.5535 158.912 21.2762 158.912 23.2377C158.912 25.1992 158.518 26.9321 157.731 28.4363C156.943 29.9455 155.875 31.1143 154.523 31.9426C153.17 32.7709 151.662 33.1876 149.994 33.1876C148.558 33.1876 147.299 32.898 146.205 32.3237C145.112 31.7495 144.226 31.0228 143.547 30.1488V41.9992H138.613V13.7299H143.547V16.4943C144.179 15.6203 145.055 14.8885 146.174 14.2991H146.169ZM153.144 20.2446C152.662 19.4061 152.03 18.7658 151.242 18.3288C150.455 17.8918 149.605 17.6733 148.688 17.6733C147.77 17.6733 146.957 17.8969 146.169 18.3491C145.381 18.7963 144.749 19.4519 144.267 20.3005C143.785 21.1542 143.547 22.1553 143.547 23.3088C143.547 24.4624 143.785 25.4635 144.267 26.3172C144.749 27.1709 145.381 27.8214 146.169 28.2686C146.957 28.7157 147.796 28.9444 148.688 28.9444C149.579 28.9444 150.455 28.7157 151.242 28.2533C152.03 27.7909 152.662 27.1353 153.144 26.2816C153.626 25.4279 153.865 24.4167 153.865 23.2428C153.865 22.0689 153.626 21.0932 153.144 20.2548V20.2446Z" fill="#231F20"/>
<path d="M180.507 24.7522H166.235C166.354 26.1345 166.847 27.2169 167.717 27.9994C168.588 28.782 169.656 29.1733 170.925 29.1733C172.76 29.1733 174.06 28.4009 174.838 26.8561H180.16C179.595 28.7007 178.517 30.215 176.916 31.3991C175.32 32.5882 173.356 33.1777 171.029 33.1777C169.148 33.1777 167.463 32.7711 165.971 31.953C164.478 31.1348 163.318 29.9762 162.483 28.4822C161.649 26.9831 161.234 25.2553 161.234 23.2989C161.234 21.3424 161.644 19.5791 162.468 18.08C163.292 16.5809 164.442 15.4325 165.919 14.6245C167.401 13.8165 169.101 13.415 171.029 13.415C172.957 13.415 174.548 13.8063 176.014 14.5889C177.481 15.3715 178.621 16.4844 179.434 17.9225C180.243 19.3606 180.652 21.0172 180.652 22.8822C180.652 23.5733 180.606 24.1933 180.512 24.7472L180.507 24.7522ZM175.543 21.5051C175.522 20.26 175.061 19.264 174.169 18.517C173.278 17.77 172.184 17.394 170.894 17.394C169.671 17.394 168.645 17.7548 167.811 18.4815C166.976 19.2081 166.463 20.2143 166.277 21.5051H175.543Z" fill="#231F20"/>
<path d="M184.154 18.0851C184.942 16.586 186.015 15.4375 187.378 14.6295C188.741 13.8215 190.254 13.4201 191.922 13.4201C193.192 13.4201 194.4 13.6894 195.55 14.2332C196.7 14.7769 197.618 15.4934 198.297 16.3929V7.30176H203.303V32.8727H198.297V30.0371C197.685 30.9823 196.83 31.7446 195.726 32.3188C194.622 32.893 193.342 33.1827 191.886 33.1827C190.243 33.1827 188.735 32.766 187.378 31.9377C186.015 31.1094 184.942 29.9406 184.154 28.4313C183.367 26.9221 182.973 25.1892 182.973 23.2328C182.973 21.2764 183.367 19.5842 184.154 18.0851ZM197.633 20.2803C197.162 19.4419 196.529 18.7965 195.731 18.3442C194.933 17.897 194.073 17.6684 193.161 17.6684C192.249 17.6684 191.399 17.8869 190.622 18.3239C189.844 18.7609 189.217 19.4012 188.735 20.2397C188.253 21.0832 188.015 22.0793 188.015 23.2277C188.015 24.3762 188.253 25.3874 188.735 26.2513C189.217 27.1152 189.85 27.7758 190.637 28.2382C191.425 28.7007 192.264 28.9293 193.156 28.9293C194.047 28.9293 194.928 28.7057 195.726 28.2535C196.524 27.8063 197.156 27.1609 197.628 26.3174C198.1 25.4789 198.333 24.4676 198.333 23.2938C198.333 22.1199 198.1 21.1137 197.628 20.2702L197.633 20.2803Z" fill="#231F20"/>
<path d="M208.467 10.6354C207.892 10.0968 207.602 9.4209 207.602 8.61292C207.602 7.80493 207.887 7.13415 208.467 6.59041C209.042 6.05175 209.763 5.77734 210.633 5.77734C211.504 5.77734 212.224 6.04667 212.799 6.59041C213.375 7.13415 213.665 7.80493 213.665 8.61292C213.665 9.4209 213.375 10.0917 212.799 10.6354C212.224 11.1792 211.504 11.4485 210.633 11.4485C209.763 11.4485 209.042 11.1792 208.467 10.6354ZM213.069 13.7302V32.8728H208.135V13.7302H213.069Z" fill="#231F20"/>
<path d="M217.846 18.0849C218.633 16.5858 219.701 15.4373 221.053 14.6294C222.406 13.8214 223.914 13.4199 225.583 13.4199C227.039 13.4199 228.314 13.7096 229.407 14.2838C230.501 14.858 231.376 15.5847 232.035 16.4588V13.7299H237.004V32.8726H232.035V30.0726C231.402 30.972 230.527 31.7139 229.407 32.3034C228.293 32.8929 227.003 33.1825 225.546 33.1825C223.904 33.1825 222.406 32.7658 221.053 31.9375C219.701 31.1092 218.633 29.9404 217.846 28.4312C217.058 26.9219 216.664 25.1891 216.664 23.2326C216.664 21.2762 217.058 19.584 217.846 18.0849ZM231.325 20.2802C230.853 19.4417 230.221 18.7963 229.423 18.3441C228.625 17.8969 227.764 17.6682 226.852 17.6682C225.94 17.6682 225.09 17.8867 224.313 18.3237C223.536 18.7608 222.909 19.401 222.427 20.2395C221.945 21.0831 221.706 22.0791 221.706 23.2275C221.706 24.376 221.945 25.3873 222.427 26.2511C222.909 27.115 223.541 27.7756 224.329 28.2381C225.116 28.7005 225.956 28.9292 226.847 28.9292C227.739 28.9292 228.62 28.7056 229.418 28.2533C230.216 27.8061 230.848 27.1608 231.319 26.3172C231.791 25.4787 232.024 24.4675 232.024 23.2936C232.024 22.1197 231.791 21.1136 231.319 20.27L231.325 20.2802Z" fill="#231F20"/>
</g>
<defs>
<clipPath id="clip0_2241_228">
<rect width="237" height="42" fill="white"/>
</clipPath>
</defs>
</svg>
