<svg width="22" height="25" viewBox="0 0 22 25" fill="none" xmlns="http://www.w3.org/2000/svg">
<path d="M9.89236 0.964898L9.90669 1.93424L10.6373 1.94857L11.3631 1.96289V0.979223V0.000331283H10.623H9.88281L9.89236 0.964898Z" fill="#2655FF"/>
<path d="M5.30158 1.40441C4.953 1.60974 4.70947 1.78164 4.71902 1.81507C4.73335 1.8676 5.61196 3.4195 5.66449 3.48157C5.68836 3.51022 6.88691 2.80351 6.90601 2.74621C6.93466 2.67936 6.01307 1.05583 5.94622 1.05583C5.92234 1.05583 5.63106 1.21341 5.30158 1.40441Z" fill="#2655FF"/>
<path d="M14.8354 1.87237C14.5776 2.326 14.377 2.71756 14.3913 2.74621C14.4104 2.80351 15.609 3.51022 15.6329 3.48157C15.7093 3.4004 16.607 1.78642 16.5927 1.76254C16.564 1.71479 15.3941 1.05106 15.3464 1.05106C15.3225 1.05583 15.0933 1.42351 14.8354 1.87237Z" fill="#2655FF"/>
<path d="M9.885 3.41889C9.46957 3.47141 8.73898 3.64331 8.33787 3.77702C7.29213 4.13515 6.35621 4.72726 5.54922 5.54857C4.60376 6.50359 3.99732 7.57321 3.67262 8.86248C3.15691 10.9205 3.57711 13.1362 4.81864 14.8695C4.96666 15.0749 5.32479 15.4998 5.62085 15.8102C6.04106 16.2543 6.19386 16.4549 6.32756 16.7366L6.49947 17.0947H8.24237H9.9805V15.815V14.5401L9.03503 13.9384L8.09434 13.3367L8.08002 12.2528L8.07047 11.1736H8.76286H9.45524V11.8756V12.5823L10.076 12.9786L10.6968 13.3797L11.3175 12.9786L11.9383 12.5823V11.8756V11.1736H12.6307H13.3231L13.3135 12.2528L13.2992 13.3367L12.3346 13.9575L11.3653 14.5783V15.8341V17.0947H13.1273H14.8893L15.0516 16.7509C15.1758 16.474 15.319 16.2877 15.7775 15.8055C16.3982 15.1465 16.9282 14.3968 17.2339 13.7522C18.0408 12.0284 18.1602 10.1136 17.5681 8.33245C16.7516 5.8876 14.6744 4.0492 12.1388 3.52871C11.6852 3.43321 10.2957 3.37113 9.885 3.41889Z" fill="#2655FF"/>
<path d="M1.5713 5.02334C1.46148 5.21435 1.29912 5.49608 1.2084 5.64888C1.1129 5.80168 1.04604 5.93539 1.05559 5.94494C1.09857 5.98314 2.73642 6.92383 2.76507 6.92383C2.8176 6.92383 3.49566 5.68708 3.46701 5.64411C3.43836 5.59635 1.85303 4.67954 1.80051 4.67954C1.78618 4.67954 1.68113 4.83712 1.5713 5.02334Z" fill="#2655FF"/>
<path d="M18.677 5.13317C18.2472 5.3767 17.8748 5.60113 17.8461 5.62978C17.8127 5.66321 17.913 5.88286 18.1517 6.29829C18.3475 6.6421 18.5194 6.92383 18.5337 6.92383C18.5624 6.92383 20.2002 5.98791 20.2384 5.94971C20.2623 5.92106 19.5508 4.70819 19.5031 4.69386C19.4792 4.68431 19.1067 4.88487 18.677 5.13317Z" fill="#2655FF"/>
<path d="M0 10.6241V11.3643H0.978892H1.95778V10.6241V9.88398H0.978892H0V10.6241Z" fill="#2655FF"/>
<path d="M19.3398 10.6251V11.3652H20.3187H21.2976V10.6251V9.88496H20.3187H19.3398V10.6251Z" fill="#2655FF"/>
<path d="M6.58984 20.103V21.7266H7.32998H8.07012V22.0035C8.07012 23.0015 8.83413 23.9804 9.87988 24.3385C10.324 24.4913 11.0689 24.4913 11.513 24.3385C12.5682 23.9804 13.3227 22.9967 13.3227 21.9796V21.7266H14.0629H14.803V20.103V18.4795H10.6964H6.58984V20.103Z" fill="#2655FF"/>
</svg>
