<svg width="20" height="20" viewBox="0 0 20 20" fill="none" xmlns="http://www.w3.org/2000/svg">
<path d="M8.68173 0.0499446C6.75885 0.328372 5.00128 1.0897 3.61349 2.25561C1.6732 3.87832 0.485537 5.99262 0.0809481 8.53327C-0.0365133 9.26414 -0.023462 10.7868 0.1027 11.5351C0.272367 12.5357 0.555144 13.4275 0.977135 14.315L1.22511 14.8457L0.711759 16.5598C0.137504 18.4609 0.1027 18.6654 0.272367 19.0395C0.442033 19.4267 0.811819 19.6834 1.24251 19.7226C1.46438 19.7443 1.68625 19.6921 3.27851 19.2397L5.06653 18.735L5.51463 18.9482C6.95462 19.6442 8.32065 19.9531 9.93901 19.9531C13.8065 19.9531 17.2086 17.8562 18.94 14.402C20.0972 12.0876 20.293 9.30329 19.4708 6.8018C19.2663 6.17969 18.7182 5.04423 18.3527 4.48737C16.8257 2.1512 14.4156 0.589397 11.5748 0.0890984C11.0266 -0.00661091 9.23859 -0.0327134 8.68173 0.0499446ZM10.5959 1.42033C14.7723 1.78141 18.0047 4.93547 18.4702 9.09882C18.7225 11.3828 17.922 13.8408 16.3385 15.6419C14.7593 17.4342 12.3404 18.5175 9.93465 18.5175C8.65563 18.5175 7.41576 18.2173 6.12368 17.6039C5.13614 17.1341 5.21445 17.1341 3.30896 17.704C2.47368 17.9563 1.77761 18.1564 1.76891 18.1477C1.76021 18.139 1.95598 17.4603 2.1996 16.6468C2.64335 15.159 2.64335 15.159 2.62595 14.7848C2.60419 14.4237 2.59114 14.3802 2.29531 13.7755C1.54704 12.2398 1.25121 10.6476 1.42088 9.08577C1.79066 5.66199 4.10509 2.82986 7.37226 1.79446C8.45116 1.45513 9.53007 1.32897 10.5959 1.42033Z" fill="black"/>
<path d="M5.74441 9.31113C5.50513 9.41989 5.22671 9.70267 5.131 9.92889C5.05269 10.116 5.05269 10.6467 5.131 10.8338C5.1658 10.9164 5.26586 11.0644 5.36157 11.1644C5.90537 11.7735 6.87117 11.6604 7.26705 10.9382C7.37581 10.7424 7.39322 10.6598 7.39322 10.3813C7.39322 10.1029 7.37581 10.0203 7.26705 9.82013C7.19745 9.69397 7.07128 9.53301 6.98863 9.4634C6.66235 9.19367 6.13159 9.12842 5.74441 9.31113Z" fill="black"/>
<path d="M9.53396 9.27107C8.66823 9.57995 8.49856 10.7589 9.23813 11.3245C9.74713 11.7117 10.4911 11.6029 10.8869 11.0852C11.0697 10.8459 11.1349 10.6023 11.1045 10.2586C11.0436 9.50599 10.2605 9.01005 9.53396 9.27107Z" fill="black"/>
<path d="M13.2361 9.27198C12.9838 9.36769 12.7576 9.56781 12.6183 9.82448C12.5096 10.0203 12.4922 10.1029 12.4922 10.3813C12.4922 10.6598 12.5096 10.7424 12.6183 10.9382C13.0142 11.6604 13.98 11.7735 14.5238 11.1644C14.7544 10.9164 14.8153 10.7424 14.8153 10.3813C14.8153 10.0203 14.7544 9.84624 14.5238 9.59826C14.2063 9.24588 13.6799 9.11101 13.2361 9.27198Z" fill="black"/>
</svg>
