<svg width="16" height="16" viewBox="0 0 16 16" fill="none" xmlns="http://www.w3.org/2000/svg">
<path d="M6.81918 0.039629C5.9033 0.195211 5.08723 0.614988 4.44436 1.2608C3.85726 1.84497 3.46096 2.5671 3.26135 3.41253C3.17328 3.77946 3.16448 4.80689 3.24667 5.19144C3.37877 5.81377 3.66938 6.46839 4.02164 6.93513C4.23006 7.21401 4.61168 7.60443 4.85533 7.78643L5.02265 7.91266L4.74084 8.02421C3.83964 8.3794 3.00889 8.91954 2.27208 9.63874C1.60866 10.2875 1.16833 10.8863 0.772038 11.6936C0.308228 12.63 0.0557746 13.6046 0.017613 14.5763L0 15.0254H0.601779H1.20356L1.22117 14.6379C1.29749 12.9764 2.13998 11.2973 3.44335 10.2053C4.37684 9.42444 5.47766 8.93128 6.68415 8.75808C7.10686 8.69644 7.93174 8.69644 8.375 8.75808C11.1109 9.14264 13.2744 11.2386 13.7617 13.9833C13.7881 14.1271 13.8174 14.4236 13.8262 14.6379L13.8438 15.0254H14.4398H15.0386V14.7377C15.0386 13.3022 14.4163 11.5967 13.4329 10.3491C13.1599 10.0027 12.4113 9.27473 12.0444 9.00467C11.4632 8.57315 10.8995 8.25318 10.3066 8.02421L10.0248 7.91266L10.1598 7.80992C10.9905 7.18465 11.5747 6.25116 11.8007 5.19144C11.8771 4.83625 11.8771 3.84405 11.8007 3.48885C11.5718 2.41152 10.9847 1.48977 10.1158 0.835152C9.61085 0.456471 8.86523 0.142372 8.22822 0.039629C7.89064 -0.0132103 7.13035 -0.0132103 6.81918 0.039629ZM8.10787 1.24612C9.35252 1.46922 10.38 2.49371 10.6177 3.75305C10.6764 4.06127 10.6764 4.61902 10.6177 4.92725C10.38 6.18658 9.37014 7.19346 8.10787 7.43711C7.79083 7.49582 7.25657 7.49582 6.93954 7.43711C5.67727 7.19346 4.66746 6.18658 4.42968 4.92725C4.37097 4.61608 4.37097 4.06127 4.42968 3.75305C4.688 2.38216 5.86808 1.31364 7.24483 1.20503C7.56774 1.17861 7.7879 1.19035 8.10787 1.24612Z" fill="white"/>
</svg>
