<svg width="27" height="27" viewBox="0 0 27 27" fill="none" xmlns="http://www.w3.org/2000/svg">
<path d="M12.2423 0.0711441C10.598 0.350456 9.13295 1.10407 7.97881 2.26347C6.92481 3.31221 6.21336 4.60863 5.85499 6.1264C5.69689 6.78515 5.68108 8.62966 5.82864 9.32003C6.0658 10.4373 6.58753 11.6125 7.21993 12.4504C7.5941 12.9511 8.2792 13.652 8.71662 13.9787L9.01701 14.2053L8.51109 14.4056C6.89319 15.0433 5.40177 16.013 4.079 17.3041C2.88797 18.4688 2.09747 19.5439 1.38602 20.9931C0.553352 22.6743 0.10013 24.4239 0.0316201 26.1683L0 26.9746H1.08035H2.16071L2.19233 26.279C2.32935 23.2961 3.84185 20.2817 6.18174 18.3212C7.8576 16.9194 9.83386 16.034 11.9998 15.7231C12.7587 15.6124 14.2396 15.6124 15.0354 15.7231C19.947 16.4135 23.831 20.1763 24.7059 25.1038C24.7533 25.362 24.806 25.8943 24.8218 26.279L24.8534 26.9746H25.9232H26.9983V26.4581C26.9983 23.8811 25.8811 20.8192 24.1156 18.5795C23.6255 17.9576 22.2817 16.6506 21.6229 16.1658C20.5794 15.3911 19.5676 14.8167 18.503 14.4056L17.9971 14.2053L18.2395 14.0209C19.731 12.8984 20.7797 11.2225 21.1855 9.32003C21.3225 8.68236 21.3225 6.90109 21.1855 6.26342C20.7744 4.32932 19.7204 2.67454 18.1605 1.49932C17.2541 0.819489 15.9155 0.255596 14.7719 0.0711441C14.1658 -0.023716 12.8009 -0.023716 12.2423 0.0711441ZM14.5558 2.23712C16.7903 2.63765 18.6348 4.47688 19.0617 6.73772C19.1671 7.29107 19.1671 8.29238 19.0617 8.84573C18.6348 11.1066 16.8219 12.9142 14.5558 13.3516C13.9866 13.457 13.0275 13.457 12.4583 13.3516C10.1922 12.9142 8.37934 11.1066 7.95246 8.84573C7.84706 8.28711 7.84706 7.29107 7.95246 6.73772C8.41623 4.27662 10.5348 2.35834 13.0064 2.16334C13.5861 2.11591 13.9814 2.13699 14.5558 2.23712Z" fill="#2655FF"/>
</svg>
