<svg width="30" height="30" viewBox="0 0 30 30" fill="none" xmlns="http://www.w3.org/2000/svg">
<path d="M13.5023 0.0178509C9.56147 0.440548 5.9906 2.32507 3.4769 5.31918C1.70908 7.42092 0.610807 9.80447 0.123336 12.599C0.0117463 13.2389 0 13.55 0 15.006C0 16.4619 0.0117463 16.7731 0.123336 17.413C0.675411 20.5832 2.00274 23.2075 4.19342 25.4795C6.44283 27.8161 9.27956 29.2955 12.592 29.8767C13.2322 29.9883 13.5435 30 15 30C16.8383 30 17.3904 29.9413 18.8352 29.5714C24.0153 28.2329 28.2322 24.0177 29.5713 18.8396C29.9413 17.3954 30 16.8435 30 15.006C30 13.1684 29.9413 12.6166 29.5713 11.1724C28.2322 6.00019 24.0153 1.77909 18.8352 0.440548C17.502 0.100042 16.8735 0.0237217 15.2349 0.00610924C14.4127 -0.0056324 13.6316 0.000238419 13.5023 0.0178509ZM22.8994 8.63031C23.4456 8.88275 23.751 9.32306 23.798 9.91014C23.8508 10.5853 24.0564 10.3504 18.5944 15.7692C15.1175 19.2154 13.567 20.7124 13.3731 20.8181C12.9679 21.0294 12.4276 21.0236 12.0634 20.8063C11.7404 20.6126 6.69538 16.0216 6.47807 15.7222C6.03171 15.1058 6.13156 14.2487 6.70125 13.779C7.14174 13.4091 7.74667 13.3446 8.25176 13.6029C8.38097 13.6674 9.42639 14.5774 10.5775 15.6342L12.6625 17.5422L17.1085 13.1039C19.5517 10.6616 21.5662 8.66553 21.5779 8.66553C21.5955 8.66553 21.713 8.62444 21.8422 8.57747C22.1887 8.45418 22.5646 8.4718 22.8994 8.63031Z" fill="#2655FF"/>
</svg>
