<svg width="27" height="27" viewBox="0 0 27 27" fill="none" xmlns="http://www.w3.org/2000/svg">
<path d="M22.554 1.38611L21.1731 2.76699L21.079 4.37801C21.0319 5.26199 20.9953 5.98904 21.0005 5.9995C21.0057 6.00473 21.738 5.96812 22.622 5.92104L24.2278 5.83212L25.6139 4.44601C26.3776 3.68234 27 3.03898 27 3.0076C27 2.9396 24.0604 0 23.9924 0C23.961 0 23.3177 0.622441 22.554 1.38611Z" fill="#2655FF"/>
<path d="M11.2649 2.0311C6.90806 2.47732 3.16401 5.09235 1.23746 9.02528C0.614313 10.3017 0.261199 11.4847 0.0690627 12.9426C-0.0503731 13.861 -0.00883023 15.7237 0.146956 16.6006C0.598735 19.1378 1.69962 21.3222 3.43404 23.1382C5.31905 25.1098 7.67142 26.3654 10.4081 26.8532C11.2856 27.0088 13.1499 27.0503 14.069 26.931C15.5282 26.739 16.7122 26.3862 17.9896 25.7636C21.6662 23.9683 24.1432 20.6684 24.8806 16.5902C24.9844 16.0039 25 15.7652 25 14.4992C25 13.2332 24.9844 12.9945 24.8806 12.4082C24.7248 11.5417 24.4651 10.613 24.1951 9.93327C23.9666 9.36253 23.3227 8.06539 23.1669 7.87861L23.0786 7.76446L21.6143 7.84747L20.1499 7.93049L19.6514 8.42859L19.1476 8.93188L19.4436 9.26395C20.1239 10.0319 20.7211 11.0799 21.0586 12.0761C21.3754 13.0101 21.4169 13.3162 21.4169 14.577C21.4117 15.8586 21.3442 16.3256 20.9911 17.3529C20.0304 20.1962 17.6313 22.4273 14.7545 23.1589C13.2278 23.5532 11.5037 23.5221 9.99263 23.0863C6.43551 22.0589 3.80792 18.785 3.58982 15.1115C3.44442 12.6832 4.18181 10.504 5.76044 8.70359C7.22483 7.02768 9.26043 6.00035 11.5713 5.77205C13.4095 5.59564 15.4919 6.2027 17.3717 7.46871L18.0364 7.91493L18.5609 7.39088L19.0853 6.86684L19.1684 5.40366L19.2515 3.94049L19.1425 3.85228C18.9867 3.72776 18.187 3.31267 17.6002 3.04287C16.5979 2.58628 15.3361 2.23345 14.1054 2.07261C13.5445 1.99997 11.8049 1.97403 11.2649 2.0311Z" fill="#2655FF"/>
<path d="M11.4373 7.03013C9.71123 7.25323 8.21077 8.01283 7.0146 9.27705C5.67678 10.6953 5 12.4164 5 14.4083C5 15.6779 5.22035 16.6606 5.73449 17.7336C6.83098 20.0018 8.8823 21.5475 11.3219 21.9406C11.9777 22.0415 13.4834 22.0096 14.0814 21.8768C15.498 21.5634 16.8043 20.8357 17.8273 19.7999C18.8504 18.7641 19.5691 17.4361 19.8787 16.0072C19.9941 15.4654 20.0413 14.0206 19.9574 13.4469C19.8157 12.4483 19.333 11.3274 18.6668 10.4244C18.4569 10.1482 18.2523 9.89323 18.2156 9.85605C18.1579 9.80824 17.906 10.0367 16.9512 11.0034L15.7603 12.2092L15.9701 12.6182C16.5472 13.7284 16.5472 15.0936 15.9701 16.2091C14.9681 18.1585 12.6334 18.9234 10.7343 17.9195C9.40694 17.2236 8.61999 15.9116 8.61999 14.4136C8.61999 13.4788 8.92427 12.6129 9.50137 11.9011C10.6713 10.4775 12.6807 10.0579 14.2808 10.9078L14.6848 11.1203L15.8232 9.9676C16.4528 9.33017 16.9669 8.79367 16.9669 8.76711C16.9669 8.69275 16.0069 8.0925 15.4193 7.80035C14.7897 7.49226 14.071 7.23729 13.4414 7.10981C12.9377 7.00888 11.9199 6.96638 11.4373 7.03013Z" fill="#2655FF"/>
<path d="M12.6915 12.0146C11.8643 12.1075 11.1211 12.86 11.0193 13.701C10.9353 14.3827 11.1255 14.9626 11.5811 15.4185C12.0368 15.8744 12.6163 16.0647 13.2975 15.9806C14.1424 15.8788 14.8812 15.1396 14.9829 14.2942C15.0271 13.9489 14.9829 13.5019 14.8812 13.2628L14.8104 13.0946L14.138 13.7674L13.4656 14.4403L13.01 13.9888L12.5588 13.5328L13.2311 12.86L13.8991 12.1916L13.7266 12.1164C13.4966 12.019 13.0454 11.9748 12.6915 12.0146Z" fill="#2655FF"/>
</svg>
