<svg width="22" height="22" viewBox="0 0 22 22" fill="none" xmlns="http://www.w3.org/2000/svg">
<path d="M9.5627 0.0644417C7.33262 0.352333 5.19707 1.34921 3.53418 2.88319C1.5748 4.69218 0.324414 7.15429 0.0451172 9.75819C-0.0150391 10.2953 -0.0150391 11.6961 0.0451172 12.2332C0.552148 16.9168 4.12285 20.8441 8.7291 21.7851C10.16 22.073 11.9389 22.073 13.3139 21.7766C15.9221 21.2137 18.2209 19.7355 19.8279 17.5914C20.9838 16.0488 21.6971 14.2828 21.9334 12.3707C22.0193 11.6746 22.0193 10.3211 21.9334 9.62069C21.7443 8.08241 21.2115 6.55702 20.4166 5.26366C18.6463 2.38046 15.6986 0.472645 12.3729 0.0601463C11.7068 -0.0214958 10.2158 -0.0171986 9.5627 0.0644417ZM12.549 1.68866C14.5256 2.02382 16.2314 2.90897 17.658 4.33554C19.1361 5.81366 20.0299 7.59257 20.3479 9.70663C20.451 10.3769 20.451 11.6144 20.3479 12.2848C20.0428 14.3129 19.1963 16.0488 17.7869 17.5441C16.876 18.5109 15.3936 19.4605 14.1088 19.9031C12.3686 20.5047 10.5338 20.5949 8.76777 20.1652C7.47871 19.8473 6.15957 19.2027 5.11973 18.3691C3.5084 17.0844 2.31816 15.2238 1.82832 13.2258C1.47168 11.7648 1.47168 10.2266 1.82832 8.76561C2.24082 7.08554 3.0873 5.58593 4.3377 4.33554C5.96621 2.70702 7.96426 1.78749 10.3533 1.56835C10.826 1.52538 11.9475 1.58554 12.549 1.68866Z" fill="#7F879A"/>
<path d="M10.0818 5.51843C9.65212 5.60007 9.18805 5.78054 8.87868 5.98679C7.7529 6.73445 7.68844 8.14812 8.77555 8.23405C9.1279 8.26413 9.2654 8.19109 9.48884 7.86452C9.84118 7.3489 10.1978 7.15554 10.8037 7.15984C11.2119 7.15984 11.4224 7.2114 11.6931 7.38327C12.1916 7.69695 12.2216 8.35437 11.7662 8.90437C11.6931 8.9946 11.3924 9.26101 11.1002 9.49734C10.1463 10.2665 9.86696 10.8079 9.86266 11.8993C9.85837 12.7157 9.97438 12.8876 10.5674 12.9219C10.9627 12.9434 11.2334 12.8747 11.3838 12.7157C11.4869 12.604 11.4998 12.5481 11.5427 12.0411C11.6072 11.2376 11.706 11.0614 12.4752 10.4212C13.4677 9.59616 13.9576 8.74538 13.9619 7.86023C13.9619 6.78171 13.1799 5.90515 11.9209 5.57859C11.4611 5.46257 10.5502 5.43249 10.0818 5.51843Z" fill="#7F879A"/>
<path d="M10.452 13.9226C10.1984 13.9699 10.0523 14.0558 9.85039 14.2749C9.63984 14.5027 9.5625 14.7175 9.5625 15.057C9.5668 15.362 9.64414 15.5597 9.8418 15.7874C10.409 16.432 11.5133 16.1827 11.7539 15.3534C11.9902 14.5284 11.2898 13.7593 10.452 13.9226Z" fill="#7F879A"/>
</svg>
