<svg width="17" height="17" viewBox="0 0 17 17" fill="none" xmlns="http://www.w3.org/2000/svg">
<g clip-path="url(#clip0_4083_786)">
<path d="M-0.000311135 2.04663C0.144752 1.58428 0.511402 1.34034 0.996166 1.40855C1.01081 0.856485 0.839791 0.148852 1.54681 0L13.4503 0.0120963C13.7368 0.0870261 13.9168 0.325256 13.946 0.619263L13.948 6.09754C13.948 6.41507 13.5621 6.50075 13.449 6.19599L13.426 0.576254L13.3741 0.523837L1.56012 0.518125C1.50489 0.549373 1.49956 0.594063 1.49224 0.651184C1.46296 0.88135 1.51686 1.17132 1.49357 1.40888C2.80846 1.28154 2.81278 3.10942 1.49357 3.02139V3.92894C2.81079 3.79891 2.81112 5.62646 1.49357 5.54145V6.44901C2.15268 6.33711 2.69766 6.94731 2.40687 7.5911C2.23719 7.96642 1.8722 8.05983 1.49357 8.06151V8.96907C2.80979 8.84441 2.81345 10.6531 1.49357 10.5816V11.4891C2.8008 11.344 2.8201 13.2162 1.49357 13.068V14.0092C2.80546 13.8634 2.81811 15.7359 1.49357 15.5881L1.52385 16.4483L13.3598 16.4899L13.4237 16.4204L13.4473 11.0009C13.4819 10.6696 13.9078 10.6592 13.9467 11.0009L13.943 16.4419C13.8918 16.7278 13.6812 16.9439 13.3987 17L1.51287 16.9963C0.842785 16.8199 1.01081 16.1287 0.995501 15.5878C0.511402 15.6496 0.133772 15.4292 -0.000976562 14.9497V14.6473C0.1371 14.1799 0.514064 13.9427 0.995168 14.0089V13.068C0.504748 13.1336 0.136767 12.9091 -0.000976562 12.4296V12.1272C0.144752 11.6585 0.506412 11.4233 0.995501 11.4891L0.996166 10.6007C0.535358 10.5809 0.120131 10.3991 -0.000643849 9.90955V9.60715C0.145085 9.13842 0.506744 8.90321 0.995833 8.96907L0.996499 8.08066C0.513399 8.05277 0.13843 7.89586 -0.000311135 7.38949V7.08709C0.151074 6.60491 0.506412 6.41003 0.996499 6.42918V5.54111C0.513399 5.56362 0.129114 5.35564 -0.000311135 4.86943V4.56702C0.151074 4.08485 0.506412 3.88997 0.996499 3.90912V3.02105C0.513399 3.04356 0.129114 2.83557 -0.000311135 2.34937V2.04696V2.04663ZM0.720679 1.91928C0.453843 1.97976 0.416246 2.36819 0.689404 2.47436C0.869735 2.54459 1.71716 2.54997 1.87253 2.44614C2.06551 2.31745 1.99664 1.97069 1.76939 1.91894C1.64729 1.89139 0.842785 1.89139 0.720679 1.91894V1.91928ZM1.91512 4.92588C2.06817 4.75989 1.96203 4.46958 1.74111 4.4343C1.59305 4.41078 0.856094 4.40876 0.720679 4.43934C0.497428 4.49008 0.423566 4.80492 0.598241 4.95209C0.756945 5.08582 1.76973 5.0838 1.91512 4.92588ZM1.91512 7.44594C2.06817 7.27995 1.96203 6.98964 1.74111 6.95436C1.59305 6.93084 0.856094 6.92883 0.720679 6.9594C0.497428 7.01014 0.423566 7.32498 0.598241 7.47215C0.756945 7.60588 1.76973 7.60387 1.91512 7.44594ZM1.91512 9.966C2.06684 9.798 1.96336 9.51004 1.74111 9.47442C1.59172 9.45057 0.855095 9.4462 0.714358 9.47342C0.453177 9.52348 0.418575 9.99423 0.715689 10.0416C0.902674 10.0715 1.55047 10.0692 1.74444 10.0453C1.80067 10.0382 1.87786 10.0073 1.91512 9.966ZM1.91512 12.4861C2.05187 12.3345 1.96702 12.0301 1.77571 11.9935C1.65194 11.9696 0.83846 11.9696 0.71469 11.9935C0.451847 12.0439 0.421237 12.5133 0.715689 12.562C0.896685 12.5919 1.55479 12.5889 1.74477 12.5654C1.80067 12.5583 1.87819 12.5274 1.91545 12.4861H1.91512ZM1.91512 15.0061C2.05187 14.8546 1.96702 14.5502 1.77571 14.5135C1.63464 14.4867 0.864079 14.49 0.715689 14.5149C0.433215 14.5619 0.432549 15.035 0.715689 15.0821C0.896685 15.112 1.55479 15.1089 1.74477 15.0854C1.80067 15.0784 1.87819 15.0475 1.91545 15.0061H1.91512Z" fill="#2655FF"/>
<path d="M15.8286 5.18457C16.6182 5.18323 17.3684 6.26585 16.8025 6.96911L9.19864 14.6644C8.85096 14.9648 7.51411 15.6848 7.07227 15.8391C6.70629 15.9667 6.3932 15.7399 6.44511 15.3387C6.47073 15.1402 7.14347 13.8623 7.2882 13.6046C7.37903 13.443 7.47818 13.2844 7.58731 13.1345L15.2411 5.3892C15.4018 5.26421 15.6267 5.18491 15.8286 5.18457ZM15.8286 5.68791C15.7029 5.68892 15.6207 5.73932 15.5252 5.81089C15.2138 6.04408 14.921 6.47854 14.6116 6.73391L15.4623 7.58837L15.5252 7.55914C15.8067 7.14652 16.8055 6.64117 16.4046 6.06155C16.2931 5.9006 16.0336 5.6859 15.829 5.68758L15.8286 5.68791ZM14.2622 7.08739L13.9491 7.43482L14.7936 8.29567L15.1066 7.94824L14.2622 7.08739ZM13.5695 7.79502L8.15126 13.3375C8.24775 13.3781 8.34656 13.5498 8.45203 13.4739L13.7831 8.07928C13.8789 8.01611 13.6044 7.78897 13.5698 7.79502H13.5695ZM14.196 8.39782L8.78109 13.8741L8.96574 14.1607L14.4296 8.66595L14.196 8.39782ZM7.00673 15.285L8.56416 14.4675C8.51126 14.3129 7.90572 13.6466 7.7733 13.742L7.00673 15.285Z" fill="#2655FF"/>
<path d="M12.1773 7.6146C12.1633 7.63207 12.0855 7.67743 12.0629 7.68247L3.8678 7.69289C3.5454 7.65223 3.58566 7.20803 3.90173 7.18652L12.0792 7.21273C12.2296 7.27221 12.2741 7.49296 12.1773 7.61426V7.6146Z" fill="#2655FF"/>
<path d="M5.77015 5.41532L11.9047 5.40625C12.3549 5.43179 12.3216 5.96335 11.8725 5.94521H5.85965C5.4411 5.96302 5.31533 5.48656 5.76982 5.41532H5.77015Z" fill="#2655FF"/>
<path d="M3.8088 8.9755L9.91244 8.96777C10.2718 9.00977 10.17 9.51177 9.81362 9.4738L3.9349 9.47246C3.63014 9.47515 3.52433 9.09915 3.80914 8.97584L3.8088 8.9755Z" fill="#2655FF"/>
<path d="M7.96117 2.42537C8.09991 2.55608 8.02206 2.83934 7.82177 2.85513L3.8678 2.85412C3.5088 2.81178 3.60961 2.31046 3.96661 2.34809C5.17137 2.42739 6.49823 2.24695 7.68835 2.34809C7.75722 2.3538 7.91426 2.38136 7.96084 2.42537H7.96117Z" fill="#2655FF"/>
<path d="M6.00068 14.2198C6.13809 14.3377 6.08686 14.6284 5.89222 14.6435C5.25308 14.5941 4.49183 14.7201 3.86766 14.6472C3.54526 14.6096 3.54725 14.1946 3.93852 14.1462C4.35675 14.0945 5.29932 14.1042 5.72919 14.1408C5.80505 14.1472 5.94445 14.1714 6.00035 14.2194L6.00068 14.2198Z" fill="#2655FF"/>
<path d="M4.73896 5.48412C4.83911 5.56577 4.83944 5.78552 4.73896 5.86784C4.60687 5.97536 3.90551 5.97536 3.75479 5.8917C3.5881 5.79929 3.60374 5.51604 3.80304 5.44178C3.96108 5.38298 4.6092 5.37828 4.73929 5.48412H4.73896Z" fill="#2655FF"/>
</g>
<defs>
<clipPath id="clip0_4083_786">
<rect width="17" height="17" fill="white"/>
</clipPath>
</defs>
</svg>
