<svg width="17" height="17" viewBox="0 0 17 17" fill="none" xmlns="http://www.w3.org/2000/svg">
<g clip-path="url(#clip0_4083_816)">
<path d="M15.7564 16.9994H4.49371C3.84743 16.8727 3.30778 16.396 3.2487 15.7222C3.18169 14.9602 3.31462 14.117 3.23357 13.3468C2.23785 12.8704 1.40208 12.1859 0.815237 11.2528C-0.746068 8.76958 0.00360378 5.47915 2.47957 3.90456C2.72238 3.75016 2.98752 3.63525 3.23321 3.48654C3.40288 2.39507 2.7793 0.668208 4.10104 0.127097C4.26423 0.0602142 4.43427 0.0178787 4.61007 -0.000976562L13.3709 0.0150326L16.9993 3.60323V15.7539C16.9377 16.3658 16.3696 16.9222 15.7561 16.9994H15.7564ZM12.9995 0.565038H4.54414C4.29197 0.565038 3.82149 0.995863 3.82149 1.24561V3.28731C5.9174 2.62631 8.23342 3.30937 9.63694 4.96472C10.7324 6.25685 11.137 7.98228 10.7645 9.62874C10.6521 10.1257 10.4457 10.637 10.1816 11.0731L12.8309 13.6965C13.9433 15.1074 12.1878 16.8062 10.7804 15.6884L8.14192 13.0874C7.18979 13.6474 6.01575 13.8826 4.91447 13.7783C4.54702 13.7435 4.16985 13.6616 3.82149 13.5464V15.7542C3.82149 16.0331 4.31647 16.4512 4.61187 16.4344L15.5731 16.4362C15.8627 16.433 16.2013 16.2469 16.335 15.9933C16.3494 15.9655 16.429 15.767 16.429 15.7542V3.95152H13.6555C13.421 3.95152 12.9998 3.50824 12.9998 3.27095V0.565038H12.9995ZM15.9917 3.38693L13.5712 0.996575V3.20442C13.5712 3.24356 13.7167 3.38693 13.756 3.38693H15.9917ZM5.45196 3.60501C1.66542 3.60501 -0.69023 7.71191 1.28572 10.9212C3.17665 13.9929 7.68945 13.9943 9.60451 10.9411C11.6104 7.74321 9.24103 3.60501 5.4516 3.60501H5.45196ZM12.3154 15.195C12.6832 14.8307 12.6176 14.2711 12.261 13.9277L9.88767 11.589L9.2857 12.2528L8.66283 12.7676L8.71291 12.8501C9.51193 13.5414 10.2288 14.4731 11.0322 15.1412C11.4101 15.4554 11.9281 15.5785 12.3154 15.195Z" fill="#2655FF"/>
<path d="M5.22465 1.7019L11.538 1.69336C11.8607 1.73143 11.9526 2.05695 11.6878 2.24123L5.21637 2.25937C4.87809 2.21988 4.87845 1.7638 5.22501 1.70225L5.22465 1.7019Z" fill="#2655FF"/>
<path d="M10.6032 5.12111L15.0346 5.11328C15.3927 5.15419 15.3977 5.63162 14.9326 5.67787C13.6214 5.80808 12.0979 5.58146 10.7642 5.67858C10.4087 5.66862 10.2711 5.28618 10.6036 5.12111H10.6032Z" fill="#2655FF"/>
<path d="M11.0606 10.6811C10.8718 10.4772 11.0375 10.2232 11.3019 10.1937C12.4367 10.0667 13.8067 10.2887 14.9664 10.1937C15.3392 10.1923 15.4145 10.7145 15.0341 10.7586C13.8247 10.6722 12.4562 10.8714 11.2659 10.7604C11.1928 10.7536 11.1125 10.738 11.0602 10.6814L11.0606 10.6811Z" fill="#2655FF"/>
<path d="M15.2094 8.57653C15.3841 8.74943 15.2595 9.06926 15.0012 9.06606L11.536 9.06677C11.1761 9.01874 11.1984 8.51677 11.5702 8.50004C12.6643 8.57547 13.8898 8.40221 14.9684 8.49898C15.0394 8.50538 15.1601 8.52744 15.2094 8.57653Z" fill="#2655FF"/>
<path d="M15.2064 6.88538C15.4125 7.08888 15.2288 7.34218 14.9661 7.37171C13.9142 7.48982 12.6451 7.28277 11.5697 7.37278C11.2081 7.35641 11.1673 6.84945 11.5362 6.80676C12.6483 6.88716 13.9077 6.70288 15.0018 6.80534C15.0832 6.81281 15.1459 6.82597 15.2064 6.88574V6.88538Z" fill="#2655FF"/>
<path d="M15.6095 15.6274C15.4866 15.7491 15.2352 15.8483 15.063 15.8682C14.8526 15.8924 13.9477 15.9017 13.7776 15.8497C13.4855 15.7608 13.5161 15.3542 13.7906 15.3093C14.1069 15.2577 14.9776 15.4015 15.1862 15.2264C15.251 15.172 15.2759 15.108 15.2856 15.0261C15.3292 14.664 15.2287 14.1905 15.2928 13.8379C15.3476 13.5359 15.8217 13.5039 15.858 13.8952C15.8843 14.1812 15.8919 14.8799 15.8534 15.1556C15.835 15.2869 15.7031 15.5349 15.6091 15.6281L15.6095 15.6274Z" fill="#2655FF"/>
<path d="M12.2026 12.3759C12.0139 12.1549 12.2113 11.9166 12.4782 11.8871C13.0301 11.8262 14.3742 11.8323 14.9322 11.8878C15.3977 11.934 15.3923 12.4114 15.0342 12.4524C14.2024 12.3752 13.1854 12.5527 12.3763 12.4531C12.324 12.4467 12.2351 12.4136 12.2026 12.3759Z" fill="#2655FF"/>
<path d="M11.7794 3.87672C11.747 3.91443 11.658 3.94752 11.6058 3.95392C10.8774 4.04357 9.96415 3.88242 9.21556 3.95392C8.91115 3.91408 8.86936 3.44625 9.28761 3.39075C9.72963 3.33205 11.0521 3.3381 11.5038 3.38791C11.7708 3.41744 11.9682 3.65544 11.7794 3.87672Z" fill="#2655FF"/>
<path d="M2.38804 5.4249C4.40145 3.41486 7.85225 3.90794 9.21866 6.37549C10.9922 9.57876 8.12639 13.3359 4.52754 12.5686C1.23129 11.8652 0.0176216 7.79142 2.38804 5.4249ZM5.0589 4.75892C2.45252 5.00439 0.935528 7.87147 2.1618 10.1569C3.51057 12.6707 7.23371 12.7532 8.66893 10.2828C10.1964 7.65374 8.1073 4.47182 5.0589 4.75892Z" fill="#2655FF"/>
<path d="M3.27539 8.21055C4.61478 8.2913 6.15195 8.07251 7.46865 8.20236C7.96831 8.25182 7.93265 8.77087 7.46865 8.79897C6.14439 8.70505 4.63676 8.92669 3.33447 8.79897C2.83589 8.75024 2.82148 8.2753 3.27575 8.21055H3.27539Z" fill="#2655FF"/>
<path d="M4.38409 6.51682C4.71227 6.4631 6.05347 6.46488 6.3903 6.51184C6.75883 6.56342 6.77468 7.02271 6.45874 7.07145L4.30988 7.07251C4.00223 6.93875 4.04798 6.57196 4.38445 6.51682H4.38409Z" fill="#2655FF"/>
<path d="M4.282 9.93564L6.45824 9.93066C6.77454 9.97976 6.75833 10.439 6.38979 10.4903C6.02703 10.5404 4.77733 10.539 4.41241 10.4903C4.06981 10.4447 3.98948 10.1153 4.282 9.93564Z" fill="#2655FF"/>
</g>
<defs>
<clipPath id="clip0_4083_816">
<rect width="17" height="17" fill="white"/>
</clipPath>
</defs>
</svg>
