<svg width="36" height="30" viewBox="0 0 36 30" fill="none" xmlns="http://www.w3.org/2000/svg">
<g clip-path="url(#clip0_3480_761)">
<path d="M0 2.50113C0.282718 1.1477 1.33093 0.147974 2.77833 0.00360913L33.1522 0C34.6991 0.124515 35.877 1.24695 36 2.73572L35.9962 23.8771C35.954 25.1457 34.5413 26.5461 33.2198 26.5461H26.9972V29.5516C26.9972 29.7573 26.4064 30.1525 26.1716 29.9395L24.0094 27.9617L21.8472 29.9395C21.6321 30.1146 21.0216 29.8223 21.0216 29.6192V26.5461H2.7774C1.50188 26.5461 0.156857 25.2305 0 24.0467V2.50113ZM26.9981 25.3975H33.0798C33.9064 25.3975 34.7348 24.5917 34.8024 23.8103C34.7423 16.6616 34.9217 9.4839 34.7123 2.35135C34.4399 1.61509 33.8143 1.21447 33.0122 1.1477H3.05542C2.04195 1.16575 1.22104 1.88397 1.19192 2.86926L1.19474 23.8094C1.26237 24.5908 2.09173 25.3966 2.91734 25.3966H20.9164L21.0216 25.2955V15.7728C21.0216 15.753 20.8582 15.5184 20.8262 15.42C20.7417 15.1584 20.7614 14.7848 20.4627 14.6892C20.0279 14.5493 19.8231 14.6621 19.4126 14.2795C18.8312 13.7391 18.9853 13.176 19.0435 12.475C18.1794 11.9336 17.6835 11.2794 18.1954 10.2878C18.2846 10.1146 18.5194 9.99459 18.4931 9.7636C18.4828 9.66886 18.155 9.2881 18.0855 9.07065C17.7812 8.12867 18.3156 7.62248 19.0435 7.1136C18.8782 6.31057 18.9768 5.4164 19.8494 5.05549C20.0476 4.97338 20.5661 4.93458 20.6553 4.84977C20.7295 4.77939 20.7812 4.24795 20.891 4.02959C21.3184 3.18416 22.1684 3.19498 23.0128 3.29875C23.3867 2.83407 23.7079 2.38473 24.3823 2.31436C25.0567 2.24398 25.5301 2.78896 25.8334 2.77091C26.025 2.75918 26.2101 2.53271 26.4158 2.44789C26.9897 2.21059 27.5729 2.28729 28.0482 2.67527C28.2351 2.82775 28.4559 3.25905 28.5949 3.30055C28.7912 3.3583 29.2608 3.21483 29.5651 3.24461C30.0225 3.28882 30.5128 3.64252 30.712 4.0332C30.8247 4.25517 30.881 4.783 30.9515 4.84977C31.0407 4.93458 31.5592 4.97338 31.7574 5.05549C32.6478 5.42452 32.7079 6.30696 32.5642 7.1145C33.0526 7.50429 33.5025 7.75241 33.5889 8.42913C33.6819 9.15366 33.0996 9.55066 33.1136 9.82315C33.1277 10.0956 33.6575 10.471 33.6086 11.1107C33.5598 11.7504 33.0611 12.1077 32.5642 12.4768C32.6713 13.2618 32.7041 13.9619 31.9424 14.4437C31.5798 14.6738 31.2502 14.5998 30.9289 14.8209L30.5983 15.7863L30.5683 23.7941C30.4217 24.2028 30.0244 24.3201 29.644 24.1018L27.5946 22.1547L26.9972 22.7276V25.3957L26.9981 25.3975ZM32.32 8.39664C32.2035 8.26672 31.8616 8.13498 31.6719 7.9058C31.0632 7.17405 31.577 6.56862 31.3929 6.21492C31.3206 6.07687 30.8303 6.03988 30.6068 5.95687C30.1775 5.79717 29.9314 5.54904 29.7765 5.13309C29.6985 4.92466 29.6825 4.49788 29.5294 4.42389C28.9809 4.39682 28.6118 4.60435 28.052 4.35893C27.6565 4.18569 27.2977 3.4783 27.093 3.46116C26.8882 3.44401 26.4693 3.82748 26.227 3.88703C25.9612 3.952 25.592 3.93937 25.3234 3.8726C25.0548 3.80583 24.6791 3.44672 24.5138 3.46025C24.3156 3.4765 24.0432 4.01335 23.799 4.1893C23.1162 4.68014 22.8795 4.37607 22.2492 4.3887C21.8566 4.39682 21.9317 4.88135 21.8096 5.18181C21.6706 5.52378 21.3954 5.78814 21.0479 5.93612C20.8121 6.03627 20.2843 6.07597 20.2129 6.21492C20.103 6.42606 20.3444 7.05405 20.1415 7.56474C19.9386 8.07543 19.2398 8.3398 19.2051 8.56086C19.1769 8.73951 19.6935 9.27998 19.6916 9.82857C19.6897 10.3772 19.1731 10.8481 19.19 11.0412C19.2079 11.2442 19.949 11.5619 20.1425 12.0247C20.3547 12.5336 20.0983 13.1607 20.212 13.3763C20.2786 13.5036 21.1005 13.6272 21.4452 13.9475C21.8763 14.3481 21.8219 14.7198 22.0755 15.1656C22.7884 15.1611 23.4092 15.0059 23.9775 15.5671C24.1136 15.7015 24.3034 16.0958 24.4461 16.1355C24.7063 16.2068 24.9712 15.8712 25.2426 15.7746C25.6625 15.6257 25.9941 15.6366 26.4026 15.8053C26.6515 15.9081 26.8525 16.1815 27.1005 16.1473C27.3053 16.1184 27.6396 15.4146 28.1243 15.2332C28.6475 15.0383 29.2862 15.2829 29.5304 15.1656C29.6919 15.088 29.7248 14.5132 29.8666 14.2732C29.9897 14.0639 30.3344 13.7544 30.5645 13.6597C30.7768 13.5721 31.3065 13.5433 31.3957 13.3763C31.5545 13.0795 31.0905 12.3775 31.6738 11.6855C31.8522 11.4734 32.3998 11.2289 32.4177 11.0421C32.4299 10.9113 32.103 10.5405 32.0279 10.3347C31.8945 9.96571 31.8738 9.73744 31.9875 9.35397C32.0861 9.02102 32.582 8.68989 32.3209 8.39664H32.32ZM22.2173 16.3467V27.9636C22.7179 27.6757 23.4374 26.5388 24.0103 26.5388C24.5833 26.5388 25.3028 27.6757 25.8034 27.9636V23.9114C25.4004 24.3075 24.7871 24.3625 24.6124 23.7391L24.6086 17.2922C23.8356 17.3581 23.412 16.8267 23.0138 16.288L22.2182 16.3476L22.2173 16.3467ZM29.3885 16.3467L28.5451 16.3115C28.114 17.0333 27.5053 17.4745 26.5895 17.2462C26.2693 17.1659 26.0974 16.9124 25.8034 16.8195V22.2223C26.2533 21.9688 27.1183 20.7462 27.5964 20.7462C28.0745 20.7462 28.9386 21.9688 29.3895 22.2223V16.3467H29.3885Z" fill="#2655FF"/>
<path d="M5.29729 20.2404C5.56874 20.5048 6.03649 20.7295 6.43004 20.7394L18.029 20.7412C18.6498 20.8323 18.7719 21.5208 18.2779 21.8501L6.08909 21.8781C4.68677 21.62 3.69491 20.5183 3.58314 19.1523C3.27037 15.3573 3.82171 11.168 3.5869 7.33145C3.73718 5.70283 5.00424 4.71032 6.64513 4.59573C10.0781 4.35572 13.7995 4.77619 17.2635 4.59212C18.0384 4.56505 18.3324 5.52147 17.5377 5.73892L6.78227 5.74073C5.60631 5.82464 4.88778 6.37052 4.77882 7.53086C4.9864 11.2609 4.51207 15.2508 4.77882 18.9501C4.81264 19.4148 4.94977 19.8994 5.29917 20.2404H5.29729Z" fill="#2655FF"/>
<path d="M9.05293 16.1562C9.69914 16.0371 9.7987 16.8591 10.1265 17.2561C10.2881 17.4519 10.8713 17.9743 11.1362 17.8949L11.216 17.8336C11.2658 17.3535 11.4593 16.9096 12.0567 17.0224C12.3713 17.0819 12.439 17.4672 12.6193 17.6305C12.8494 17.839 14.4189 18.1728 14.8097 18.2278C15.253 18.2901 16.0561 18.2378 16.3857 18.3343C16.9315 18.4949 16.923 19.2646 16.3857 19.4225C15.6465 19.6399 13.4139 19.1554 12.6184 18.9145C12.4822 18.873 12.1121 18.6564 12.0576 18.6609C12.0304 18.6627 11.7552 18.8883 11.5993 18.9443C10.7436 19.251 9.94805 18.7521 9.38637 18.171C9.00409 18.7376 7.66564 19.7744 6.9565 19.5578C6.60615 19.4504 6.52913 19.0462 6.68881 18.753C6.95744 18.2576 8.16533 18.2712 8.48749 17.2398C8.62557 16.7986 8.44898 16.2681 9.05199 16.1571L9.05293 16.1562Z" fill="#2655FF"/>
<path d="M6.77327 13.6917C6.42292 13.3831 6.62393 12.6983 7.13582 12.6992H15.6465C16.3519 12.7777 16.4279 13.7567 15.5741 13.8487C12.9996 14.1266 9.90476 13.6385 7.27483 13.8523C7.11986 13.8505 6.88598 13.791 6.77327 13.6917Z" fill="#2655FF"/>
<path d="M7.01055 10.418L15.8715 10.4541C16.4079 10.787 16.2313 11.5115 15.5747 11.553H7.20498C6.54092 11.4782 6.35213 10.6462 7.01055 10.418Z" fill="#2655FF"/>
<path d="M7.01191 8.12109L15.8889 8.14185C16.4562 8.53344 16.1697 9.21646 15.5038 9.25436H7.27772C6.57139 9.2309 6.31685 8.37824 7.01191 8.12109Z" fill="#2655FF"/>
<path d="M25.2259 5.22225C28.7002 4.87758 31.3395 7.89482 30.3909 11.1295C29.3558 14.6592 24.4914 15.5534 22.0784 12.7311C19.6654 9.90871 21.4979 5.59129 25.2259 5.22225ZM25.3658 6.36996C20.8198 6.86441 21.3166 13.7407 26.322 13.2318C30.7525 12.7816 30.2039 5.84393 25.3658 6.36996Z" fill="#2655FF"/>
</g>
<defs>
<clipPath id="clip0_3480_761">
<rect width="36" height="30" fill="white"/>
</clipPath>
</defs>
</svg>
