<svg width="21" height="18" viewBox="0 0 21 18" fill="none" xmlns="http://www.w3.org/2000/svg">
<path d="M2.79297 0.0507812C2.07109 0.18828 1.5082 0.484766 0.992578 1.00039C0.571484 1.42148 0.266406 1.95 0.0945313 2.55586L0 2.88672V7.52734V12.168L0.0988281 12.5117C0.459766 13.7922 1.3707 14.6859 2.6168 14.9824C2.95195 15.0641 3.17109 15.0684 8.90742 15.0684H14.8457L17.2219 16.4305L19.5938 17.7926L19.8602 17.7969C20.148 17.7969 20.277 17.7324 20.4488 17.5004L20.5391 17.3844V10.1141C20.5391 3.28203 20.5348 2.82656 20.4617 2.56445C20.1309 1.35703 19.2285 0.441797 18.0297 0.102343L17.7031 0.0078125L10.3984 -0.000782013C4.46875 -0.00507927 3.03789 0.00351524 2.79297 0.0507812ZM17.6086 1.46875C18.352 1.66211 18.9406 2.26797 19.0953 2.99414C19.134 3.17031 19.1426 4.8375 19.134 9.55117L19.1211 15.8719L17.2133 14.7848L15.3098 13.6977L9.19961 13.6848L3.09375 13.6719L2.82734 13.5816C2.10547 13.3324 1.57695 12.7266 1.44375 12.0004C1.3793 11.6566 1.3793 3.40234 1.43945 3.07578C1.58125 2.32812 2.15273 1.69219 2.87891 1.48594C3.11953 1.41719 3.64375 1.40859 10.248 1.40859C16.4227 1.4043 17.3938 1.41289 17.6086 1.46875Z" fill="#7F879A"/>
</svg>
