<svg width="15" height="15" viewBox="0 0 15 15" fill="none" xmlns="http://www.w3.org/2000/svg">
<path d="M14.2383 0.015625C14.1973 0.0244141 14.0127 0.0478516 13.8281 0.0742188C11.9824 0.320312 10.1162 0.991211 8.76562 1.89355C8.15625 2.30078 7.42969 2.93945 6.96094 3.48145L6.82324 3.63965L6.59473 3.53125C5.63965 3.08301 4.73438 3.25 3.98145 4.01172C3.3252 4.67676 2.8125 5.89844 2.8125 6.79785C2.8125 7.03809 2.81836 7.06738 2.88281 7.13184C3.03516 7.28418 3.17578 7.2666 3.41895 7.05859C3.74707 6.77148 4.16309 6.61914 4.60254 6.61914C4.97168 6.61914 4.98047 6.63379 4.81934 7.04395C4.74902 7.21973 4.6377 7.55078 4.56738 7.77637C4.45605 8.14844 4.44727 8.2041 4.46191 8.41211L4.47656 8.6377L4.3125 8.73145C3.7793 9.03027 3.46289 9.40234 3.2168 10.0117C3.01758 10.5039 2.8125 11.4355 2.8125 11.8486C2.8125 12.0098 2.82129 12.042 2.89453 12.1123C2.97363 12.1914 2.97656 12.1943 3.2666 12.1768C3.83496 12.1416 4.81055 11.8926 5.25586 11.667C5.68359 11.4502 6.02051 11.125 6.2666 10.6855L6.36035 10.5215L6.58594 10.5361C6.79395 10.5508 6.85254 10.542 7.20703 10.4336C7.42383 10.3691 7.75488 10.2549 7.93945 10.1846C8.36719 10.0176 8.37891 10.0234 8.37891 10.3955C8.37891 10.8408 8.22949 11.2393 7.93945 11.5791C7.73145 11.8223 7.71387 11.9629 7.86621 12.1152C7.93066 12.1797 7.96289 12.1855 8.18262 12.1855C9.09961 12.1855 10.3154 11.6787 10.9863 11.0166C11.748 10.2637 11.915 9.3584 11.4668 8.40332L11.3584 8.1748L11.5166 8.03711C11.8242 7.77051 12.4395 7.12598 12.6738 6.82129C13.582 5.65527 14.2324 4.26953 14.6455 2.62012C14.8477 1.81445 14.9971 0.859375 15 0.390625C15 0.170898 14.9941 0.147461 14.9238 0.0742188C14.8506 0.000976562 14.8301 -0.00195312 14.5781 0.000976562C14.4316 0.00390625 14.2793 0.00976562 14.2383 0.015625ZM14.3848 0.707031C14.3848 0.99707 14.165 2.14551 13.9834 2.80469L13.875 3.19434L12.8408 2.16016L11.8066 1.12891L11.9326 1.09082C12.6006 0.885742 13.8809 0.625 14.2617 0.616211C14.3818 0.613281 14.3848 0.616211 14.3848 0.707031ZM12.4336 2.57324L13.6641 3.80371L13.5791 4.01758C13.4238 4.41309 13.1924 4.9082 12.9814 5.2832C12.5566 6.04492 12.167 6.55762 11.5605 7.16113C10.7549 7.9668 9.87012 8.60547 8.82129 9.14453L8.42578 9.34668L7.04297 7.96387L5.66016 6.58105L5.71875 6.44629C5.78906 6.2793 5.99707 5.89258 6.19043 5.56445C6.96387 4.25781 7.98926 3.13867 9.08203 2.40039C9.38965 2.19238 9.96094 1.86719 10.2539 1.73242C10.5615 1.58887 11.1416 1.34863 11.1768 1.3457C11.1943 1.3457 11.7598 1.89941 12.4336 2.57324ZM6.00586 3.94141C6.2168 4.00293 6.44531 4.09961 6.44531 4.12891C6.44531 4.14355 6.33984 4.30176 6.21094 4.48633C5.94434 4.86719 5.50488 5.59375 5.34375 5.92188C5.23535 6.14453 5.23242 6.14453 5.16211 6.09766C5.07422 6.04199 4.6377 6.00977 4.33594 6.04199C4.0957 6.06543 3.77051 6.15332 3.59473 6.24414C3.53027 6.27637 3.47461 6.29688 3.46875 6.29102C3.46289 6.28223 3.4834 6.17969 3.51855 6.05957C3.70312 5.38281 4.01367 4.82031 4.43555 4.40723C4.91602 3.93262 5.44336 3.77441 6.00586 3.94141ZM6.63574 8.37695C7.55273 9.29395 7.82812 9.58691 7.7959 9.60449C7.70801 9.66016 6.84082 9.93555 6.70312 9.9502L6.55664 9.96777L5.79785 9.20898C5.13281 8.54102 5.03906 8.43848 5.03906 8.35938C5.03906 8.2041 5.36719 7.17578 5.41406 7.17578C5.42578 7.17578 5.97656 7.71777 6.63574 8.37695ZM10.9512 8.69043C11.1797 9.22949 11.1768 9.65723 10.9395 10.1055C10.6289 10.6973 9.84961 11.2334 8.93848 11.4795C8.81836 11.5146 8.71582 11.5352 8.70703 11.5293C8.70117 11.5234 8.72168 11.4678 8.75391 11.4033C8.92383 11.0723 9.01758 10.4922 8.96484 10.1172C8.94727 9.99121 8.91504 9.85938 8.89453 9.82715C8.85352 9.76562 8.8623 9.75977 9.07617 9.6543C9.41602 9.4873 10.1396 9.04785 10.5029 8.79004C10.6816 8.66113 10.8398 8.55859 10.8574 8.55566C10.875 8.55273 10.9189 8.61426 10.9512 8.69043ZM5.40234 9.60449L5.89453 10.0967L5.83301 10.2373C5.74512 10.4365 5.53711 10.7178 5.35254 10.8877C5.03906 11.1719 4.40332 11.4062 3.53613 11.5557L3.4248 11.5732L3.44238 11.4619C3.4541 11.4004 3.49512 11.2012 3.53613 11.0195C3.72949 10.1289 3.96387 9.69531 4.43848 9.3584C4.59375 9.24707 4.83984 9.1123 4.89258 9.10938C4.90137 9.10938 5.12988 9.33203 5.40234 9.60449Z" fill="#151515"/>
<path d="M10.1867 3.02658C9.42205 3.2463 8.96209 4.03439 9.15545 4.78732C9.29022 5.30294 9.69451 5.70724 10.2101 5.84201C10.9865 6.04415 11.801 5.54025 11.9826 4.7463C12.0324 4.52951 12.006 4.12814 11.924 3.9172C11.7892 3.55685 11.4435 3.21115 11.0803 3.07052C10.8693 2.99142 10.3976 2.96798 10.1867 3.02658ZM10.9338 3.63302C11.1066 3.71798 11.2707 3.87912 11.3615 4.0549C11.464 4.25705 11.4699 4.57345 11.3732 4.78732C11.1652 5.24142 10.6262 5.4465 10.1896 5.23263C9.64178 4.96603 9.50994 4.25705 9.92596 3.82638C10.1896 3.55392 10.6144 3.47189 10.9338 3.63302Z" fill="#151515"/>
<path d="M8.80469 5.82617C8.77246 5.84082 8.62891 5.97266 8.48242 6.11914C8.23926 6.36523 8.21875 6.39453 8.21875 6.50293C8.21875 6.66699 8.33301 6.78125 8.49707 6.78125C8.6084 6.78125 8.63477 6.76074 8.89844 6.49414C9.16504 6.23047 9.18555 6.2041 9.18555 6.09277C9.18555 5.89941 8.97461 5.75293 8.80469 5.82617Z" fill="#151515"/>
<path d="M7.46777 7.14355C7.40625 7.20801 7.38281 7.25781 7.38281 7.33691C7.38281 7.41602 7.40625 7.46582 7.46777 7.53027C7.53223 7.5918 7.58203 7.61523 7.66113 7.61523C7.81055 7.61523 7.93945 7.48633 7.93945 7.33691C7.93945 7.25781 7.91602 7.20801 7.85449 7.14355C7.79004 7.08203 7.74023 7.05859 7.66113 7.05859C7.58203 7.05859 7.53223 7.08203 7.46777 7.14355Z" fill="#151515"/>
<path d="M2.53402 7.90527C2.37875 8.00195 1.58773 8.8252 1.56723 8.91016C1.53793 9.02148 1.57016 9.12988 1.65512 9.21484C1.71078 9.27051 1.75766 9.28516 1.86605 9.28516H2.00375L2.49594 8.79297C2.97933 8.30957 2.98812 8.30078 2.98812 8.17773C2.98812 8.01953 2.95297 7.94922 2.84164 7.89355C2.72738 7.83496 2.63949 7.83789 2.53402 7.90527Z" fill="#151515"/>
<path d="M1.08105 11.0013L0 12.0824V12.2142C0 12.2875 0.0205078 12.3754 0.0439453 12.4105C0.108398 12.5013 0.269531 12.5482 0.389648 12.5101C0.457031 12.4867 0.805664 12.1556 1.53223 11.4291L2.57812 10.3802V10.2426C2.57812 10.0551 2.49316 9.95837 2.30273 9.93786L2.16211 9.92028L1.08105 11.0013Z" fill="#151515"/>
<path d="M6.20508 12.502L5.71289 12.9942V13.1319C5.71289 13.2871 5.79199 13.3985 5.92969 13.4336C6.08496 13.4717 6.16113 13.416 6.6416 12.9385C7.11914 12.458 7.1748 12.3819 7.13672 12.2266C7.10156 12.0889 6.99023 12.0098 6.83496 12.0098H6.69727L6.20508 12.502Z" fill="#151515"/>
<path d="M1.22522 13.4658C0.49866 14.1924 0.167606 14.541 0.144168 14.6084C0.106082 14.7285 0.152957 14.8896 0.243777 14.9541C0.278934 14.9775 0.366824 14.998 0.440067 14.998H0.571902L1.65296 13.917L2.73401 12.8359L2.71643 12.6953C2.69593 12.5049 2.59925 12.4199 2.41175 12.4199H2.27405L1.22522 13.4658Z" fill="#151515"/>
<path d="M3.56897 13.4658C2.84241 14.1924 2.51136 14.541 2.48792 14.6084C2.44983 14.7285 2.49671 14.8896 2.58753 14.9541C2.62268 14.9775 2.71057 14.998 2.78382 14.998H2.91565L3.99671 13.917L5.07776 12.8359L5.06018 12.6953C5.03968 12.5049 4.943 12.4199 4.7555 12.4199H4.6178L3.56897 13.4658Z" fill="#151515"/>
<path d="M12.8322 2.15137C13.3888 2.70801 13.8488 3.16211 13.8575 3.16211C13.8663 3.16211 13.4181 2.70801 12.8615 2.15137C12.3048 1.59473 11.8449 1.14062 11.8361 1.14062C11.8273 1.14062 12.2755 1.59473 12.8322 2.15137Z" fill="#C14040"/>
<path d="M14.1211 0.645456C13.7051 0.70112 13.1807 0.79487 12.8174 0.879831C12.3545 0.9853 11.8652 1.11714 11.8652 1.14057C11.8652 1.16694 13.8545 3.14448 13.8662 3.13276C13.875 3.12397 13.9277 2.9394 13.9863 2.7226C14.1211 2.22456 14.2471 1.61225 14.3086 1.15522C14.335 0.961862 14.3643 0.759714 14.373 0.706979C14.3818 0.642526 14.376 0.613229 14.3496 0.616159C14.3291 0.619089 14.2266 0.630807 14.1211 0.645456Z" fill="#EC4040"/>
<path d="M5.21484 3.93652C4.6875 4.08594 4.17188 4.5957 3.82324 5.31055C3.68555 5.59473 3.55664 5.9375 3.50098 6.18066L3.48047 6.25977L3.74121 6.16309C3.88184 6.11035 4.10156 6.04883 4.22461 6.03125C4.51465 5.98438 5.02148 6.00488 5.14453 6.06934L5.23242 6.11621L5.34375 5.89062C5.56641 5.43945 5.91211 4.87109 6.26074 4.38477C6.46875 4.0918 6.48047 4.12695 6.12305 3.99512C5.84766 3.89551 5.45801 3.86914 5.21484 3.93652Z" fill="#EC4040"/>
<path d="M5.38672 7.25098C5.27246 7.54395 5.08789 8.15039 5.07617 8.28223L5.05859 8.44043L5.80859 9.1875L6.55566 9.9375L6.71387 9.91992C6.86035 9.90527 7.75098 9.62695 7.79785 9.58301C7.80957 9.57129 7.2793 9.02051 6.62012 8.36133L5.42188 7.16309L5.38672 7.25098Z" fill="#EC4040"/>
<path d="M10.5322 8.78906C10.0811 9.1084 9.68555 9.35156 9.25488 9.57715L8.88281 9.76758L8.92969 9.85547C8.96191 9.91699 8.97949 10.043 8.98828 10.2715C9.00293 10.6465 8.9502 10.96 8.81836 11.2998L8.73633 11.5137L8.82715 11.4932C9.24316 11.4053 9.89062 11.1035 10.251 10.8369C11.0186 10.2656 11.2617 9.60059 10.9863 8.83594C10.9336 8.69531 10.8838 8.57813 10.875 8.57227C10.8633 8.56641 10.7109 8.66309 10.5322 8.78906Z" fill="#EC4040"/>
<path d="M4.74823 9.20099C4.5578 9.28595 4.27362 9.49689 4.11835 9.66974C3.94842 9.85724 3.78143 10.2 3.66424 10.5985C3.57635 10.8973 3.44452 11.5125 3.46503 11.533C3.48553 11.5535 4.10077 11.4217 4.3996 11.3338C4.80682 11.2137 5.14374 11.0467 5.34003 10.868C5.50995 10.7127 5.73846 10.3992 5.81171 10.2205L5.85565 10.118L5.36639 9.62872L4.87713 9.1424L4.74823 9.20099Z" fill="#ECEC6B"/>
<path d="M13.2276 3.39648C13.2891 3.46094 13.3477 3.51367 13.3565 3.51367C13.3653 3.51367 13.3184 3.46094 13.2569 3.39648C13.1954 3.33203 13.1368 3.2793 13.128 3.2793C13.1192 3.2793 13.1661 3.33203 13.2276 3.39648Z" fill="#C1C1C1"/>
<path d="M7.84961 3.41602L7.75 3.52734L7.86133 3.42773C7.96094 3.33105 7.98438 3.30762 7.96094 3.30762C7.95508 3.30762 7.90527 3.35742 7.84961 3.41602Z" fill="#C1C1C1"/>
<path d="M7.03134 7.95215C7.78134 8.70215 8.39951 9.31445 8.4083 9.31445C8.41709 9.31445 7.81064 8.70215 7.06064 7.95215C6.31064 7.20215 5.69248 6.58984 5.68369 6.58984C5.6749 6.58984 6.28134 7.20215 7.03134 7.95215Z" fill="#C1C1C1"/>
<path d="M11.5703 7.13867L11.4707 7.25L11.582 7.15039C11.6406 7.09473 11.6904 7.04492 11.6904 7.03906C11.6904 7.01562 11.667 7.03906 11.5703 7.13867Z" fill="#C1C1C1"/>
<path d="M10.3036 3.61312C9.56534 3.88851 9.49502 4.86117 10.1894 5.20394C10.5175 5.36508 10.9569 5.28598 11.1884 5.01937C11.3612 4.82601 11.411 4.69418 11.411 4.43637C11.411 4.24008 11.3964 4.17855 11.3319 4.05551C11.1796 3.7684 10.9218 3.59848 10.6054 3.5809C10.4882 3.57504 10.3739 3.58676 10.3036 3.61312Z" fill="#6BECEC"/>
<path d="M10.9424 1.45117C10.5381 1.60938 9.87305 1.9375 9.45703 2.18652C8.8623 2.54102 8.39063 2.91309 7.86328 3.4375C7.03418 4.2666 6.37793 5.17188 5.85645 6.21777L5.67773 6.56934L7.05469 7.94336L8.42871 9.32031L8.75098 9.15918C10.4297 8.31543 11.8799 7.04688 12.7295 5.68164C13.0547 5.15723 13.623 3.97656 13.623 3.82715C13.623 3.80371 13.0781 3.23535 12.416 2.56445L11.2061 1.34863L10.9424 1.45117ZM10.8955 3.00098C11.4346 3.12988 11.8682 3.56348 11.9971 4.10254C12.1143 4.60645 11.9678 5.10742 11.5898 5.47949C11.1123 5.9541 10.3447 6.03906 9.78516 5.68164C9.21387 5.31543 8.95605 4.5918 9.16992 3.96484C9.41895 3.24414 10.1631 2.82812 10.8955 3.00098ZM9.11426 5.88379C9.18164 5.95117 9.19922 5.99512 9.19922 6.09473C9.19922 6.21484 9.18457 6.23242 8.91211 6.50781C8.63672 6.78027 8.61914 6.79492 8.49902 6.79492C8.32324 6.79492 8.20313 6.6748 8.20313 6.49902C8.20313 6.37891 8.21777 6.36133 8.49023 6.08594C8.76563 5.81348 8.7832 5.79883 8.90332 5.79883C9.00293 5.79883 9.04688 5.81641 9.11426 5.88379ZM7.87793 7.13184C7.98926 7.24316 7.98633 7.44531 7.87207 7.54492C7.76367 7.63867 7.66406 7.65918 7.55566 7.6123C7.45605 7.57422 7.35352 7.43066 7.35352 7.33691C7.35352 7.25195 7.45898 7.09082 7.53809 7.05859C7.6377 7.01465 7.7959 7.0498 7.87793 7.13184Z" fill="#ECECEC"/>
</svg>
