<svg width="30" height="31" viewBox="0 0 30 31" fill="none" xmlns="http://www.w3.org/2000/svg">
<path d="M13.2032 0.0540094C9.58379 0.494115 6.37167 2.06404 3.82957 4.63242C3.33692 5.12507 3.06103 5.36155 3.00848 5.3287C2.9625 5.29586 2.52239 4.98713 2.02974 4.63242C1.53708 4.28428 1.05757 3.96241 0.965604 3.91643C0.525499 3.71936 0 4.08721 0 4.59958C0 5.42067 0.525499 11.8843 0.610893 12.0814C0.801386 12.528 1.40571 12.9222 1.90493 12.9222C1.9969 12.9222 3.67192 12.5083 5.61627 12.0025C8.92691 11.142 9.17653 11.0698 9.34731 10.8859C9.53781 10.6757 9.59036 10.275 9.45898 10.0319C9.41957 9.96623 8.94662 9.58525 8.40141 9.19769L7.40954 8.48827L7.96788 7.9562C9.39986 6.5899 11.4362 5.61773 13.5316 5.30243C14.1491 5.21047 15.7387 5.21047 16.3693 5.309C18.6552 5.644 20.5667 6.61618 22.2023 8.25179C23.1745 9.22396 23.6869 9.94653 24.2715 11.1683C24.7116 12.0814 24.9021 12.3244 25.3028 12.4886C25.6903 12.6528 26.0122 12.62 27.4442 12.2522C28.9287 11.8777 29.198 11.7464 29.4476 11.2537C29.6776 10.8136 29.671 10.4655 29.4017 9.78231C28.0485 6.28117 25.3159 3.30553 21.8739 1.59766C20.3894 0.861964 19.2004 0.474408 17.5057 0.172247C16.6123 0.0145969 14.0899 -0.0576591 13.2032 0.0540094Z" fill="#2655FF"/>
<path d="M24.4687 18.7609C20.3698 19.8316 20.534 19.7856 20.4026 19.9827C20.2844 20.16 20.2647 20.6133 20.3632 20.8038C20.3961 20.8694 20.8756 21.2439 21.4208 21.6314L22.4193 22.3408L21.8543 22.8795C20.4092 24.2589 18.3401 25.2377 16.2315 25.5398C15.4301 25.6515 13.5318 25.5792 12.7763 25.4084C10.8517 24.9618 9.17668 24.075 7.79724 22.7678C6.87762 21.9073 6.20761 20.9811 5.61642 19.7856C4.98582 18.5047 4.70337 18.242 3.99394 18.242C3.58668 18.2485 1.09056 18.8791 0.834383 19.0499C0.551927 19.2338 0.32859 19.582 0.249765 19.9695C0.184078 20.2848 0.190647 20.3768 0.322021 20.7775C0.565065 21.5132 1.32704 23.0109 1.88538 23.8582C4.4866 27.7863 8.67089 30.3153 13.3675 30.7948C14.3266 30.8868 16.3169 30.8408 17.2431 30.6897C18.9444 30.4204 20.4289 29.9409 21.9529 29.1658C23.4965 28.3907 24.7906 27.4316 26.0583 26.1376L26.7349 25.4544L26.9123 25.5727C27.0174 25.6384 27.464 25.9537 27.9041 26.2689C28.3508 26.5908 28.7975 26.8864 28.8895 26.9193C29.1522 27.0178 29.4675 26.9324 29.6514 26.7091C29.8748 26.4463 29.8748 26.558 29.566 22.4131C29.3887 20.0418 29.2836 18.9251 29.2179 18.7675C29.0997 18.5047 28.8238 18.2091 28.5545 18.0646C28.0946 17.8281 27.8713 17.8675 24.4687 18.7609Z" fill="#2655FF"/>
</svg>
