<svg width="18" height="17" viewBox="0 0 18 17" fill="none" xmlns="http://www.w3.org/2000/svg">
<path d="M3.375 1.72266V3.44531H5.09766H6.82031V2.84766V2.25H6.18047C5.57227 2.24648 5.54414 2.24297 5.66016 2.19375C5.88516 2.09531 6.4793 1.93359 6.89062 1.85625C7.48477 1.74375 8.66602 1.74375 9.24961 1.85625C10.6805 2.13047 11.8301 2.71758 12.8391 3.68438C13.2363 4.06406 13.4789 4.35586 13.8199 4.85859L14.052 5.19961L14.5477 4.91133C14.8219 4.75313 15.0469 4.60898 15.0469 4.59492C15.0469 4.57734 14.9449 4.41211 14.8219 4.22227C13.8516 2.75273 12.4523 1.65234 10.793 1.0582C10.3148 0.885938 9.61875 0.720704 9.08789 0.650391C8.55 0.580079 7.55859 0.580079 7.01016 0.650391C6.28242 0.745313 5.42812 0.98086 4.80937 1.26211L4.57031 1.36758V0.685547V4.76837e-07H3.97266H3.375V1.72266Z" fill="#2655FF"/>
<path d="M1.02656 4.6832C0.959766 4.76758 0.703125 5.30898 0.566016 5.65C0.175781 6.64141 0 7.5625 0 8.64883C0 10.9164 0.861328 12.9309 2.51367 14.527L2.75977 14.7625L2.08477 14.766H1.40625V15.3461V15.9262H3.12891H4.85156V14.2035V12.4809H4.25391H3.65625L3.64922 13.2227L3.63867 13.968L3.25195 13.5848C2.0918 12.4316 1.42383 11.0852 1.21289 9.48203C1.04414 8.18828 1.26562 6.89102 1.8668 5.62891C1.98281 5.38984 2.0707 5.18945 2.06719 5.18594C1.91953 5.09453 1.10742 4.64102 1.08984 4.64102C1.07578 4.64102 1.04766 4.66211 1.02656 4.6832Z" fill="#2655FF"/>
<path d="M14.3684 8.32461C13.718 8.975 13.1836 9.52695 13.1836 9.54453C13.1836 9.56563 13.3664 9.7625 13.5879 9.98398L13.9922 10.3883L14.4527 9.93125L14.9133 9.47422L14.8887 9.66758C14.7551 10.7855 14.1293 12.1707 13.3277 13.1164C13.0992 13.3871 12.5227 13.932 12.2168 14.1676C11.6965 14.5684 10.8984 14.9867 10.248 15.1977C9.59766 15.4121 9.11953 15.5035 8.35664 15.5598L8.05078 15.5809V16.1609V16.7445L8.5043 16.7234C10.2727 16.632 11.9637 15.9465 13.3418 14.7652C14.8676 13.4539 15.8766 11.5309 16.084 9.54805L16.1121 9.30898L16.65 9.84688L17.1914 10.3883L17.5957 9.98398C17.8172 9.7625 18 9.56563 18 9.54453C18 9.49883 15.6375 7.13633 15.5918 7.13633C15.5707 7.13633 15.0223 7.6707 14.3684 8.32461Z" fill="#2655FF"/>
</svg>
