<svg width="34" height="49" viewBox="0 0 34 49" fill="none" xmlns="http://www.w3.org/2000/svg">
<path d="M3.32206 2.32689C0.85795 4.66319 0.658427 4.90812 0.788117 5.38857C0.818045 5.51104 2.66364 8.37489 4.88832 11.7663C7.113 15.1577 8.92866 17.9556 8.92866 17.9933C8.92866 18.031 8.80895 18.1063 8.65931 18.1723C8.11062 18.4078 6.76384 19.2933 5.85601 20.0187C3.06268 22.2231 1.05747 25.445 0.229452 29.0154C0.0299285 29.8915 0 30.2589 0 32.2184C0 34.1684 0.0299285 34.5453 0.229452 35.4214C1.70592 41.8368 6.71396 46.5565 13.5476 47.9696C14.4455 48.158 14.8545 48.1768 16.9595 48.1768C19.234 48.1768 19.4136 48.1674 20.5509 47.9131C27.2349 46.4246 32.1332 41.7426 33.5897 35.4214C33.7893 34.5453 33.8192 34.1684 33.8192 32.2184C33.8192 30.2589 33.7893 29.8915 33.5897 29.0154C32.7617 25.445 30.7465 22.2231 27.9532 19.9999C27.0553 19.2933 25.6986 18.4078 25.1599 18.1723C25.0102 18.1063 24.8905 18.031 24.8905 17.9933C24.8905 17.9556 26.7062 15.1483 28.9309 11.7663C31.1556 8.37489 33.0011 5.51104 33.0311 5.38857C33.1608 4.90812 32.9612 4.66319 30.4971 2.32689L28.033 3.8147e-06H24.4815H20.93L20.6606 0.244938C20.4511 0.442768 20.4012 0.584076 20.4012 0.942059C20.4012 1.30004 20.4511 1.44135 20.6606 1.63918L20.93 1.88412H23.2644C24.6511 1.88412 25.5889 1.9218 25.5689 1.9689C25.5589 2.01601 24.8905 3.05227 24.0924 4.27694L22.6459 6.49078L16.9096 6.5002H11.1733L9.72676 4.27694C8.92866 3.05227 8.27024 2.01601 8.25029 1.9689C8.23033 1.9218 9.208 1.88412 10.5548 1.88412H12.8892L13.1586 1.63918C13.3681 1.44135 13.4179 1.30004 13.4179 0.942059C13.4179 0.584076 13.3681 0.442768 13.1586 0.244938L12.8892 3.8147e-06H9.33769H5.78617L3.32206 2.32689ZM10.5648 9.36406C12.969 13.0287 14.9443 16.0809 14.9742 16.1469C15.0041 16.2128 14.655 16.307 13.9966 16.4106C13.4279 16.4954 12.57 16.6838 12.0712 16.8157C11.5823 16.957 11.1134 17.0795 11.0336 17.0889C10.9438 17.0889 9.37759 14.7903 7.02322 11.2105L3.15247 5.32263L4.61896 3.9378C5.41706 3.17474 6.10541 2.58124 6.14532 2.61892C6.17524 2.6566 8.17048 5.69003 10.5648 9.36406ZM30.5769 5.45452C30.5271 5.5393 28.7812 8.18648 26.7062 11.3518C24.4516 14.7809 22.8654 17.0889 22.7856 17.0889C22.7057 17.0795 22.2468 16.957 21.748 16.8157C21.2592 16.6838 20.3913 16.4954 19.8226 16.4106C19.1443 16.307 18.815 16.2128 18.845 16.1375C18.8749 16.0809 20.8801 12.991 23.3043 9.27927L27.7238 2.53414L29.1902 3.91896C30.3375 5.00233 30.6468 5.34147 30.5769 5.45452ZM21.1794 8.70462C20.8502 9.26043 16.9595 15.1671 16.9096 15.1671C16.8697 15.1671 12.7595 8.93071 12.55 8.54446C12.5301 8.50678 14.4854 8.47852 16.9096 8.47852H21.3091L21.1794 8.70462ZM19.2041 18.323C25.2696 19.1803 30.2278 23.6645 31.5446 29.4864C31.804 30.6263 31.804 33.8105 31.5446 34.9503C30.128 41.1962 24.5513 45.8405 17.987 46.2362C15.1737 46.4058 12.7495 45.9536 10.2754 44.7948C6.20517 42.8825 3.24225 39.2367 2.27456 34.9503C2.01518 33.8105 2.01518 30.6263 2.27456 29.4864C3.24225 25.2 6.20517 21.5637 10.2754 19.6419C13.1187 18.3042 16.0317 17.8803 19.2041 18.323Z" fill="#2655FF"/>
<path d="M14.6652 20.4928C10.1559 21.2652 6.34505 24.4023 4.92844 28.4814C4.49946 29.7061 4.33984 30.7518 4.33984 32.2214C4.33984 34.8309 5.00825 36.8846 6.54458 39.0042C7.06334 39.7296 8.30038 40.9731 9.07852 41.576C10.555 42.7065 12.6999 43.6203 14.6851 43.95C15.8224 44.129 17.9972 44.129 19.1345 43.9406C24.2822 43.0927 28.4323 39.1738 29.3301 34.3127C29.5197 33.2859 29.5197 31.1568 29.3301 30.13C28.4422 25.2878 24.2622 21.3406 19.1644 20.4928C18.097 20.3232 15.6628 20.3138 14.6652 20.4928ZM18.5958 22.4334C19.9426 22.6218 21.449 23.1776 22.7459 23.9784C23.544 24.4682 25.1501 25.9944 25.6789 26.7574C26.856 28.472 27.3848 30.1677 27.3848 32.2214C27.3848 34.991 26.4071 37.2049 24.3021 39.202C22.1972 41.1803 19.8129 42.1224 16.9098 42.1224C13.9569 42.1224 11.3331 41.0485 9.27804 38.9948C7.38257 37.1012 6.43484 34.8497 6.43484 32.2214C6.43484 29.593 7.38257 27.3415 9.27804 25.448C11.7721 22.9609 14.9445 21.9341 18.5958 22.4334Z" fill="#2655FF"/>
<path d="M15.9952 26.1918C15.5363 26.4273 15.3667 26.6629 14.7781 27.8498L14.2992 28.8013L13.3914 28.9238C11.9548 29.1028 11.5458 29.2064 11.2066 29.4702C10.6081 29.9506 10.3686 30.8362 10.6679 31.505C10.7477 31.684 11.2266 32.2022 11.7254 32.6638L12.6532 33.5116L12.4437 34.7269C12.2042 36.0363 12.2441 36.4226 12.6332 36.9501C12.9026 37.2987 13.5909 37.5907 14.1496 37.5907C14.5287 37.5907 14.8379 37.4777 15.7657 37.0255L16.913 36.4508L18.0702 37.0255C19.3771 37.6661 19.826 37.732 20.5742 37.3929C21.073 37.1668 21.3324 36.8559 21.492 36.3001C21.5818 35.9704 21.5718 35.6878 21.3923 34.708L21.1828 33.5022L22.1006 32.6638C22.5994 32.2022 23.0782 31.684 23.1581 31.505C23.4573 30.8362 23.2179 29.9506 22.6193 29.4702C22.2802 29.2064 21.8711 29.1028 20.4346 28.9238L19.5267 28.8013L19.0579 27.8498C18.7985 27.3317 18.4992 26.7853 18.3895 26.6346C17.9306 26.0317 16.7633 25.815 15.9952 26.1918ZM17.4617 29.3006C17.731 29.8282 18.0503 30.3369 18.17 30.4405C18.3296 30.5818 18.6588 30.676 19.3771 30.7702C21.0132 30.9963 20.9633 30.8833 19.9158 31.8819C19.1377 32.6449 19.008 32.8051 19.008 33.0783C19.008 33.3986 19.2674 34.9247 19.3771 35.2733C19.417 35.4146 19.1975 35.3298 18.3595 34.9059C16.9728 34.2087 16.8631 34.2087 15.5063 34.8964L14.4489 35.424L14.6284 34.416C14.9277 32.7957 14.9577 32.8899 13.9102 31.8819C12.8627 30.8833 12.8028 31.0057 14.4588 30.7702C15.1572 30.676 15.4964 30.5818 15.656 30.4405C15.7757 30.3369 16.0949 29.8282 16.3643 29.3006C16.6337 28.7825 16.8831 28.3586 16.913 28.3586C16.9429 28.3586 17.1923 28.7825 17.4617 29.3006Z" fill="#2655FF"/>
<path d="M16.1715 0.248587C15.962 0.446419 15.9121 0.587728 15.9121 0.94571C15.9121 1.30369 15.962 1.445 16.1715 1.64283C16.381 1.84066 16.5306 1.88777 16.9097 1.88777C17.2888 1.88777 17.4385 1.84066 17.648 1.64283C17.8575 1.445 17.9073 1.30369 17.9073 0.94571C17.9073 0.587728 17.8575 0.446419 17.648 0.248587C17.4385 0.0507551 17.2888 0.00365233 16.9097 0.00365233C16.5306 0.00365233 16.381 0.0507551 16.1715 0.248587Z" fill="#2655FF"/>
</svg>
