<svg width="18" height="18" viewBox="0 0 18 18" fill="none" xmlns="http://www.w3.org/2000/svg">
<path d="M6.24103 0.0505619C2.96718 0.493671 0.417729 3.10661 0.0273991 6.40883C0.00278366 6.63038 -0.0077658 7.02777 0.00630015 7.48143C0.0309156 8.4415 0.157509 9.071 0.495092 9.92205C1.28278 11.9196 2.91795 13.4599 4.95751 14.1281C5.73114 14.3813 6.37817 14.4833 7.22916 14.4833C8.74125 14.4833 10.0635 14.0859 11.3153 13.2454L11.681 12.9992L14.1109 15.4293C15.9747 17.2896 16.576 17.8734 16.6991 17.9261C16.9171 18.0246 17.2898 18.0246 17.4938 17.9261C17.6661 17.8453 17.8806 17.6237 17.9509 17.4514C18.0248 17.2756 18.0142 16.8887 17.9263 16.6988C17.8736 16.5757 17.2933 15.9779 15.4296 14.1105L12.9997 11.6804L13.2248 11.3498C13.8613 10.4179 14.2868 9.31365 14.4309 8.20588C14.4977 7.6854 14.4977 6.79215 14.4309 6.28222C14.1039 3.79237 12.5004 1.63661 10.2217 0.620274C9.56059 0.324867 8.95576 0.152548 8.20675 0.0470448C7.76719 -0.0162563 6.71224 -0.0162563 6.24103 0.0505619ZM8.31224 1.92147C9.4129 2.16061 10.2533 2.6213 11.0586 3.42311C11.565 3.92953 11.8428 4.31285 12.1276 4.90015C13.2916 7.31615 12.4828 10.2597 10.2463 11.7472C9.37774 12.324 8.49158 12.6053 7.43312 12.644C5.82257 12.7003 4.43707 12.1306 3.29773 10.9419C2.6085 10.221 2.14432 9.33827 1.91224 8.2938C1.82432 7.89641 1.79971 6.8871 1.87004 6.44399C2.13377 4.80168 3.08323 3.40905 4.53905 2.54393C5.05949 2.23446 5.76982 1.98477 6.4485 1.87223C6.85642 1.80541 7.90081 1.83355 8.31224 1.92147Z" fill="#7C8595"/>
</svg>
