<svg width="68" height="93" viewBox="0 0 68 93" fill="none" xmlns="http://www.w3.org/2000/svg">
<g clip-path="url(#clip0_5164_1120)">
<path d="M6.75844 68.3637C6.75844 72.9213 11.4722 75.5909 16.2773 75.5909C19.4726 75.5909 18.3279 72.9213 18.3279 68.3637C18.3279 63.8061 15.7381 60.1119 12.5428 60.1119C9.34757 60.1119 6.75772 63.8068 6.75772 68.3637H6.75844Z" fill="#0B2481"/>
<path d="M46.2373 98.4128C44.9955 97.8075 43.633 97.6859 42.3007 98.0799C41.059 98.4128 40.0603 99.5028 39.9388 100.805C39.7267 99.7149 39.424 98.6551 39.0911 97.5954C39.0307 97.4135 39.0005 97.2323 38.9394 97.0504C38.5461 95.6879 37.789 94.3254 37.9702 92.9026C38.0004 92.7207 38.5152 92.6603 38.8179 92.4482C41.4221 90.4501 43.4504 88.2392 45.6915 85.9083C45.7591 85.8371 45.8224 85.7638 45.8828 85.6883L47.6853 94.0299C48.0743 95.8475 48.5546 97.6486 48.707 99.51C48.5683 99.4381 48.4309 99.3655 48.2958 99.2914C47.63 98.9283 46.9031 98.7464 46.2365 98.4136L46.2373 98.4128Z" fill="#2655FF"/>
<path d="M37.7719 99.1628L35.7716 93.2463L45.0813 82.2803L45.8801 85.6876C45.8204 85.7631 45.7564 85.8364 45.6888 85.9076C43.4484 88.2393 41.4194 90.4494 38.8152 92.4475C38.5125 92.6596 37.9977 92.72 37.9675 92.9019C37.7856 94.3247 38.5427 95.6872 38.9367 97.0497C38.9971 97.2316 39.0273 97.4128 39.0884 97.5947C39.4213 98.6544 39.724 99.7142 39.9361 100.804C40.0569 99.5021 41.0563 98.4121 42.298 98.0792C43.6303 97.686 44.9928 97.8068 46.2346 98.4121C46.9003 98.745 47.6273 98.9269 48.2938 99.29C48.4282 99.3641 48.5663 99.4367 48.7043 99.5086C48.7086 99.5632 48.713 99.6172 48.7165 99.6718C48.7949 99.7854 48.8733 99.8997 48.9517 100.013C49.826 101.062 50.3933 102.2 49.9957 103.618C49.859 103.697 49.7224 103.776 49.5851 103.856C48.6109 104.142 48.6619 103.298 48.485 102.799C47.7279 100.66 46.6286 98.9657 44.0186 99.0369C43.8446 99.042 43.672 99.0053 43.5246 98.9068C43.5131 98.9111 43.5023 98.9154 43.4908 98.9197C43.2629 99.1822 42.9732 99.3382 42.6352 99.4072C42.6244 99.4094 42.6144 99.413 42.6036 99.4158C42.5669 99.5251 42.5065 99.6243 42.4339 99.7171C42.0406 100.22 41.7207 100.727 41.4726 101.234C40.4746 103.282 40.6767 105.367 42.1916 107.494C42.3196 107.673 42.5281 107.88 42.3297 108.105C42.1657 108.29 41.9033 108.276 41.6761 108.197C41.2634 108.056 40.8916 107.858 40.796 107.372C40.1396 106.957 40.1755 105.814 39.1416 105.793C37.9739 105.139 37.5382 103.7 38.0602 101.953C38.1868 101.53 38.2968 101.129 38.1875 100.717C38.0494 100.198 37.9099 99.679 37.7712 99.1606L37.7719 99.1628Z" fill="#0B2481"/>
<path d="M39.9793 88.2939C39.6809 87.6763 39.2121 86.7855 38.9087 86.1628C38.5729 85.3914 38.0631 84.7357 37.5807 84.0512C37.8316 83.5429 38.0955 83.0259 38.4679 82.5377C39.0079 81.5218 43.2572 80.3463 43.7972 79.3303C44.6823 78.5567 45.453 78.7839 45.9053 79.9587C46.2425 80.8352 46.3 81.7037 45.6579 82.468" fill="#EFEFEF"/>
<path d="M35.7726 93.2462C35.5763 92.6401 33.5278 88.8791 33.7097 88.3126L35.815 86.2965C35.9437 86.239 36.0717 86.1995 36.1989 86.1721C36.8489 85.5725 37.1976 84.8219 37.578 84.0511C38.0604 84.7356 38.5709 85.3913 38.906 86.1628C39.2094 86.7854 39.6782 87.677 39.9766 88.2939" fill="#D3D5D5"/>
<path d="M17.626 76.3487C18.5996 76.824 19.6393 77.1101 20.694 77.3157C27.1313 78.5697 33.6195 78.4424 40.1114 77.9384C41.5947 77.8233 43.091 77.622 44.4901 77.031C44.6289 76.998 44.7475 77.0332 44.8453 77.1367C45.2142 77.9427 45.171 78.1052 45.0862 78.9378L42.2641 81.5275C38.8977 83.7233 38.2341 88.2615 34.8447 90.7557C33.0846 92.0513 26.1239 90.1352 26.1239 90.1352C25.4632 90.0683 24.8837 89.8016 24.3157 89.4651C22.3902 88.3234 20.9399 86.7013 19.6465 84.9154C18.9159 83.9757 17.8734 82.9274 17.7411 81.7123C17.3039 79.9479 17.3385 78.2238 17.1975 76.4048C17.3047 76.1086 17.4535 76.2639 17.6253 76.348L17.626 76.3487Z" fill="#0B2481"/>
<path d="M23.1387 105.293C23.3401 104.635 23.8261 104.823 24.2697 104.923C25.2361 105.139 26.1765 105.184 27.0365 104.573C27.5599 103.492 27.3226 102.469 26.769 101.487C26.5605 101.118 26.3074 100.801 26.357 100.325C26.618 97.7888 26.8545 95.2501 27.0997 92.7128C27.2471 92.2598 26.9761 92.0391 26.6295 91.8586C23.4026 91.034 20.6833 89.3142 18.2359 87.109C17.9619 86.8624 17.6873 86.4677 17.2537 86.692C17.0567 86.7941 17.1466 87.1155 17.1876 87.3441C17.0402 89.0524 16.8928 90.7607 16.7454 92.4698V98.8579C17.6815 98.6501 18.5371 98.6437 19.3561 99.0377C20.1434 99.4166 20.7588 99.9745 21.1931 100.745C22.4837 103.035 22.1681 105.872 20.3727 107.949C21.6935 107.719 22.222 107.212 23.1387 105.292V105.293Z" fill="#0B2481"/>
<path d="M17.5648 87.3844C17.0615 90.9872 16.9896 94.4081 17.0363 97.8348C17.0414 98.2252 17.0601 98.479 17.6216 98.3719C19.5334 98.0052 21.0584 98.5797 22.0406 100.351C22.3282 100.868 22.8416 100.903 23.3664 100.847C23.9309 100.787 23.9661 100.376 24.0322 99.927C24.2968 98.1339 24.391 96.3285 24.4852 94.5225C24.514 93.9674 24.3436 93.6043 23.8417 93.2865C22.5734 92.4813 21.3827 91.5538 20.1086 90.7586C18.8763 89.9893 18.0753 88.9259 17.5648 87.3851V87.3844Z" fill="#2655FF"/>
<path d="M23.1358 88.2939C24.0382 89.0186 24.9585 89.8339 26.124 90.1366C26.6525 90.274 28.4766 90.6859 28.4766 90.6859L27.1004 92.7127L22.9136 90.7564C23.1106 89.9468 23.1926 89.1157 23.1358 88.2939Z" fill="#D3D5D5"/>
<path d="M16.7449 84.1856C16.7449 82.8433 17.0908 81.7483 17.5258 81.6699V81.662L17.5315 81.6685C17.5459 81.6663 17.5603 81.662 17.5754 81.662C17.7084 81.662 17.8342 81.7569 17.9457 81.9266C18.3102 82.4802 18.6819 83.0288 19.1097 83.5349L23.1347 88.2939C23.1915 89.1164 23.1095 89.9468 22.9125 90.7564C20.8706 89.7311 19.0651 88.296 17.3827 86.6373C17.0167 86.3735 16.7442 85.377 16.7442 84.1849L16.7449 84.1856Z" fill="#EFEFEF"/>
<path d="M44.6525 66.2937C45.4801 67.3183 46.6147 68.0653 47.9815 68.432C48.1138 68.46 48.2447 68.4722 48.3741 68.46C48.5948 68.6476 48.7436 68.8777 48.6933 69.2653C48.4438 71.1835 48.1728 73.101 47.3358 74.8633C46.8167 75.9547 46.115 76.931 44.7546 77.0964C43.9364 77.8075 42.6292 77.9096 41.6536 78.0742C41.0704 78.1727 40.4859 78.2532 39.9006 78.3201C43.042 75.1997 44.3376 70.719 44.6518 66.2944L44.6525 66.2937Z" fill="#D5D6D6"/>
<path d="M18.4217 51.6373C18.9653 51.3511 19.5088 51.0642 20.0517 50.7781C20.2393 50.6602 20.4198 50.5422 20.6161 50.4502C20.7031 50.4092 20.7937 50.374 20.8886 50.3467C20.8706 50.438 20.8598 50.5372 20.8548 50.6451V50.6472C20.8512 50.7522 20.8512 50.8651 20.8562 50.9859C20.7405 51.8292 21.3847 52.1405 21.9283 52.5266C24.1478 53.8352 26.5903 54.1824 29.1176 54.3845C31.1739 54.5491 33.213 54.4974 35.2492 54.3521C36.1437 54.2889 37.0381 54.2076 37.934 54.1199H37.9354C38.1094 54.1019 38.2834 54.0854 38.4574 54.0674C39.5316 53.9581 40.5763 53.7072 41.5815 53.3305C43.0533 52.7783 43.4818 52.2347 43.4818 50.8377L46.6016 51.9421C44.0052 53.4527 43.4473 56.0274 43.0734 58.6991C42.9569 59.4756 42.9742 60.2528 43.0626 61.0308C43.0907 61.3996 43.1187 61.7692 43.1475 62.1394C43.2244 63.7636 43.7579 65.1901 44.6495 66.2944C44.3353 70.719 43.0389 75.1997 39.8983 78.3201C36.5111 78.7084 33.0994 78.6214 29.6935 78.612C26.54 78.6034 23.4231 78.2245 20.34 77.5753C19.2392 77.3445 18.1449 77.0676 17.1994 76.4062C16.0799 75.4241 15.1668 74.2687 14.977 72.7717C14.8087 71.4466 14.5844 70.1115 14.6858 68.7548L14.5894 64.1058C14.5218 59.536 15.33 55.2365 18.4224 51.6373H18.4217Z" fill="#EFEFEF"/>
<path d="M44.5664 77.0497C44.5204 77.0461 44.4823 77.0389 44.4787 77.0202C44.483 77.0238 44.4888 77.0274 44.4931 77.0317C44.5175 77.0375 44.5427 77.0432 44.5664 77.0497Z" fill="#EFEFEF"/>
<path d="M23.1574 52.0982C25.0815 53.232 27.1989 53.5333 29.3897 53.708C31.1721 53.8511 32.9394 53.8058 34.7039 53.6799C35.4797 53.6253 36.2555 53.5548 37.0313 53.4786H37.0327C37.183 53.4635 37.3347 53.4484 37.485 53.4333C38.4161 53.3384 39.3213 53.1206 40.1927 52.7942C41.5128 52.2995 41.8644 51.8113 41.8385 50.5035C41.8371 50.438 41.8349 50.3697 41.8313 50.2993C41.8134 49.9139 41.8853 49.5242 41.7688 49.1446C41.7551 48.9814 41.7523 48.8419 41.7192 48.7391C41.6631 48.5608 41.5157 48.4954 41.0563 48.6205C36.6596 49.8161 32.1608 50.2324 27.6145 50.0491C26.3138 49.9966 25.0009 49.8521 23.7305 49.5774C23.2193 49.4667 22.8518 49.476 22.6081 49.6234C22.3694 49.768 22.2486 50.0433 22.2277 50.4668V50.4682C22.2242 50.5596 22.2242 50.6573 22.2285 50.7623C22.1278 51.4935 22.6872 51.7631 23.1581 52.0975L23.1574 52.0982Z" fill="#0B2481"/>
<path d="M20.8588 50.9867C20.8531 50.8652 20.8531 50.753 20.8574 50.648V50.6459C20.8631 50.538 20.8739 50.4381 20.8912 50.3475C21.0084 50.313 21.1335 50.2907 21.2701 50.2842C21.6519 50.2677 22.1818 50.0865 22.2314 50.4676V50.469C22.2278 50.5603 22.2278 50.6581 22.2321 50.7631C22.1314 51.4943 22.6908 51.7639 23.1618 52.0982C25.0858 53.2321 27.2033 53.5333 29.3941 53.708C31.1765 53.8511 32.9438 53.8058 34.7082 53.68L37.4893 53.4327C38.4204 53.3378 39.3257 53.1199 40.1971 52.7935C41.5172 52.2988 41.8688 51.8106 41.8429 50.5028C42.2606 50.551 42.8538 50.6826 43.4844 50.8371C43.4844 52.2341 43.0559 52.7784 41.5841 53.3298C40.5789 53.7066 39.5349 53.9575 38.46 54.0668C38.286 54.0848 38.112 54.1013 37.938 54.1193H37.9366C37.0414 54.207 36.147 54.2882 35.2518 54.3515C33.2156 54.4968 31.1765 54.5485 29.1201 54.3839C26.5929 54.1818 24.1511 53.8346 21.9308 52.526C21.3873 52.1399 20.743 51.8293 20.8588 50.9852V50.9867Z" fill="#D5D6D6"/>
<path d="M43.0737 58.6992C43.4476 56.0282 44.0056 53.4528 46.6019 51.9422C46.6817 51.9221 46.7608 51.9027 46.8413 51.8826C47.359 51.9386 49.6562 52.7547 49.4161 52.9963C48.3548 54.0604 45.2264 54.6607 44.9791 56.144C44.598 58.4325 44.7886 60.6743 45.5018 62.8758C46.4926 64.459 47.3302 66.1486 48.7754 67.4119C49.1011 67.6966 49.1069 68.0985 48.6769 68.3818C48.5777 68.4249 48.4756 68.4494 48.3728 68.4587C48.2434 68.4709 48.1118 68.4587 47.9802 68.4307C45.1416 67.67 43.2973 65.27 43.1492 62.1381C43.1205 61.7686 43.0924 61.399 43.0644 61.0295C42.976 60.2515 42.9587 59.4743 43.0752 58.6978L43.0737 58.6992Z" fill="#2655FF"/>
<path d="M34.5872 80.3621C31.1547 80.0428 27.7114 80.1917 24.2738 80.0996C23.0573 80.0673 21.8472 79.7286 20.6393 79.5C19.4968 79.2843 19.0992 79.6071 19.4342 80.6727C20.5782 84.3158 24.263 89.4752 29.529 89.693C30.1013 89.7167 30.6478 89.9526 31.2424 89.9217C32.6358 89.849 33.7028 89.4816 34.3327 88.002C35.1538 86.0737 36.6673 84.5753 38.0341 83.0072C38.4907 82.4831 39.1888 81.969 38.8164 81.232C38.4756 80.5583 37.6875 80.3549 36.911 80.3613C36.1359 80.3671 35.3616 80.3628 34.5865 80.3628L34.5872 80.3621Z" fill="#2655FF"/>
<path d="M5.0756 26.3493C6.10521 25.0882 5.97507 23.2002 6.2713 21.6055C6.32522 23.4827 5.43367 26.0092 7.39367 27.0568C8.11698 27.4134 8.89997 27.4098 9.61682 27.1538C9.63408 26.8742 9.64989 26.5938 9.66427 26.3141C9.74911 24.6741 9.98135 23.0384 10.1187 21.3969C10.2287 20.0841 10.7557 18.8036 10.8398 17.4584C10.1431 17.2829 9.44426 17.2017 8.73892 17.4167C7.17365 17.7467 6.85801 18.9812 6.65453 20.2962C6.58263 20.2459 6.51145 20.1955 6.43955 20.1452C6.38418 19.7994 6.13541 19.5614 5.85069 19.4852C5.09645 19.2831 5.07128 18.8259 5.07128 18.1285C5.07416 15.0368 5.01161 11.9438 4.88579 8.85502C4.85631 8.1346 5.00298 7.78805 5.64793 7.43359C7.45478 6.44139 8.11626 4.63172 7.50942 2.68399C6.97952 0.984319 5.42144 -0.0855264 3.60812 0.00578431C1.84512 0.0942191 0.389142 1.44878 0.0756569 3.29081C-0.268745 5.31619 0.555233 6.84259 2.4498 7.65719C2.81793 7.81537 3.10409 7.934 3.10841 8.45455C3.1307 11.5836 3.18175 14.7126 3.25868 17.8409C3.28169 18.7806 3.34784 19.6671 2.40666 20.2811C2.15357 20.4464 2.06442 20.8613 1.89977 21.1618C1.78544 21.3588 1.60497 21.5436 1.56615 21.755C1.30946 23.1585 1.17142 24.5583 1.19874 25.9517C1.2088 25.9603 1.21887 25.9697 1.22894 25.9783C2.36855 26.7577 4.21783 27.4788 5.07344 26.3493H5.0756Z" fill="#2655FF"/>
<path d="M9.8629 34.719C9.61988 34.3609 9.63139 33.9461 9.58106 33.5398C9.31646 31.4081 9.48759 29.2784 9.61629 27.1531C8.89944 27.4091 8.11645 27.4127 7.39313 27.0561C5.43313 26.0085 6.32469 23.482 6.27077 21.6047C5.97382 23.2002 6.10468 25.0875 5.07507 26.3486C4.21874 27.4774 2.37018 26.757 1.23056 25.9776C1.21978 25.969 1.21043 25.9603 1.20037 25.951C1.22984 27.4472 1.45129 28.9355 1.92584 30.4123C2.48019 32.1385 3.71256 32.9424 5.48418 32.9632C5.97741 32.969 6.26717 33.061 6.49725 33.5988C7.1307 35.0821 8.43137 35.6587 9.95063 35.8427C9.93984 35.7737 9.95925 35.7155 10.0096 35.6673C10.3238 35.2949 10.1304 35.0008 9.86362 34.7175L9.8629 34.719Z" fill="#0B2481"/>
<path d="M57.7786 12.7404C57.5982 12.7641 57.417 12.7878 57.2365 12.8115C57.5054 13.2875 57.775 13.7642 58.0439 14.2402C58.1532 14.1474 58.2618 14.0539 58.3711 13.9612C58.1712 13.5557 58.1223 13.0768 57.7786 12.7404Z" fill="#EFEFEF"/>
<path d="M9.80088 12.4693C16.6005 -4.71729 44.3691 -2.3504 55.5488 9.00664C62.7166 16.474 60.7587 38.2649 54.2244 45.5525C44.2497 55.7189 8.34561 53.0271 7.89408 35.0014C7.36058 27.5895 6.77459 19.4024 9.80016 12.47L9.80088 12.4693Z" fill="#EFEFEF"/>
<path d="M10.9695 18.3729C11.8575 15.6049 13.2164 13.1697 15.4813 11.3391C18.2962 9.06427 21.5382 8.18208 24.947 7.86285C29.7247 7.41565 34.4701 7.72769 39.1393 8.71916C42.2462 9.37847 45.2739 10.2952 47.8098 12.4967C50.2738 14.6364 51.8463 17.3376 52.5466 20.5608C53.3015 24.0342 53.2462 27.5845 52.7098 31.1284C52.6163 32.6836 52.3841 34.2171 51.9886 35.7249C51.7808 37.5115 51.1848 39.1839 50.4708 40.803C48.8574 44.4598 46.3294 47.056 42.6445 48.3912C38.8877 49.7522 35.059 50.1462 31.1519 49.8852C26.6452 49.584 22.2032 48.9771 18.0208 47.0927C13.5141 45.0623 10.4677 41.7291 9.52076 36.5208C8.84921 32.8259 9.04694 29.0966 9.41147 25.3722C9.64586 22.9802 10.2383 20.655 10.9703 18.3737L10.9695 18.3729Z" fill="#D0D0D1"/>
<path d="M13.3721 19.0832C14.8008 13.9101 19.4664 11.2535 24.3225 10.6215C32.169 10.1175 41.8137 9.72351 47.5837 16.1375C53.1941 21.581 51.1032 41.409 43.7967 45.0248C43.2481 45.311 42.6988 45.5964 42.1502 45.8826C36.0114 47.9547 25.2184 46.7058 19.4254 45.0737C9.4507 41.3156 10.6845 27.903 13.3721 19.0832Z" fill="#2655FF"/>
<path d="M14.9644 20.7614C16.2852 16.2526 19.2554 14.1575 23.2911 13.2646C26.2966 12.5995 29.3272 12.8461 32.3606 13.0043C36.0175 13.1941 39.5845 13.752 42.871 15.4359C45.4227 16.7437 47.4769 18.6562 48.2772 21.6989C49.1652 25.076 49.0156 28.4832 48.3326 31.902C48.0313 33.4946 47.8817 35.1087 47.3741 36.6732C46.2029 40.2796 44.1163 42.8226 40.5903 44.0988C36.9342 45.4225 33.2249 45.416 29.5076 45.1018C26.3318 44.8329 23.2271 44.1226 20.2224 42.965C16.603 41.5702 14.272 39.0846 13.8355 34.9296C13.3344 30.152 13.5875 25.465 14.9644 20.7628V20.7614Z" fill="#0B2481"/>
<path d="M60.0356 29.4769C61.5728 28.4106 61.7382 26.3004 61.7648 24.6094C61.8302 25.3607 61.8381 26.1171 61.7303 26.8835C61.5728 28.4114 61.9172 30.3612 63.5235 30.7452C64.52 30.999 65.6251 30.6323 66.3125 29.8608C66.2895 30.2023 66.2593 30.5439 66.219 30.8847C65.8495 34.0086 65.1959 34.6162 62.299 35.0152C62.0553 35.049 61.9438 35.0914 61.795 35.3229C60.5979 37.1873 59.2771 37.6057 57.1395 36.8529C56.2105 35.8147 56.1221 34.5148 56.0545 33.2278C55.9998 32.1889 55.9955 31.1514 56.0193 30.1153C56.1113 30.1348 56.2076 30.1477 56.3083 30.152C57.5946 30.2146 58.9341 30.2138 60.0349 29.4769H60.0356Z" fill="#0B2481"/>
<path d="M57.2261 19.7605C58.5727 18.8424 59.7469 19.1271 60.7693 20.619C61.0332 21.0381 61.1842 21.6234 61.686 21.696C61.8464 21.6522 62.0225 21.6241 62.2195 21.6148C62.4582 17.8415 62.5898 14.064 62.6955 10.2843C62.73 9.04767 62.6682 8.25536 61.3201 7.68161C59.8662 7.06256 59.3442 5.11915 59.8324 3.49929C60.3041 1.93334 61.9118 0.730487 63.4339 0.80598C65.1351 0.890101 66.5026 1.99877 66.9153 3.62799C67.3582 5.37655 66.6989 7.0374 65.1725 7.8254C64.639 8.10077 64.3916 8.36608 64.4197 9.01892C64.5764 12.611 64.3075 16.198 64.1227 19.7821C64.0609 20.9864 64.0796 22.0124 65.1279 22.773C65.4392 23.0707 65.6175 23.4403 65.7304 23.8522C66.2697 25.8294 66.4465 27.8455 66.3128 29.8608C65.6254 30.6322 64.5203 30.9989 63.5238 30.7451C61.9183 30.3612 61.5731 28.4113 61.7306 26.8835C61.8385 26.117 61.8305 25.3607 61.7651 24.6093C61.7378 26.3004 61.5731 28.4113 60.0359 29.4768C58.9358 30.2138 57.5963 30.2138 56.3093 30.152C56.2079 30.1476 56.1123 30.1347 56.0203 30.1153C56.0764 27.6909 56.2892 25.2708 56.3999 22.8478C56.451 21.7586 56.7335 20.7319 57.2275 19.7612L57.2261 19.7605ZM60.7693 20.619C60.6241 20.7117 60.5816 20.8145 60.586 20.9238C60.6456 20.8217 60.7067 20.7204 60.7693 20.619Z" fill="#2655FF"/>
<path d="M17.4637 25.2176C17.7305 26.657 18.2137 27.9656 19.72 28.5508C20.8502 28.9901 21.9057 28.7708 22.8081 27.9649C24.2303 26.6944 24.4093 23.9982 23.2086 22.2734C21.8425 20.3113 19.3432 20.4062 18.1137 22.4589C17.6032 23.3116 17.4839 24.2449 17.4637 25.2169V25.2176Z" fill="#00FF9E"/>
<path d="M30.3091 37.6078C32.1217 37.4712 33.7157 36.8069 35.0962 35.6313C35.6592 35.1525 36.0913 34.5672 35.5945 33.854C35.0653 33.0941 34.3362 33.2867 33.669 33.7117C32.6962 34.3307 31.6917 34.8455 30.5363 35.0562C28.6813 35.3941 27.1484 34.8915 25.9354 33.4363C24.9159 32.214 24.0811 31.8754 23.5217 32.5498C22.6711 33.5758 23.5505 34.3343 24.1285 35.0353C25.7233 36.9687 27.8149 37.7948 30.3091 37.6078Z" fill="#00FF9E"/>
<path d="M14.7062 51.638C16.0601 51.075 20.8516 50.6458 20.8516 50.6458L15.6525 60.0867L15.6266 60.1651C15.6287 60.1809 15.6302 60.1967 15.6323 60.2125C15.8236 60.498 15.7617 60.9358 15.7819 61.3111C15.8293 62.194 15.7977 63.0906 16.0091 63.9405C13.3768 63.9333 8.47106 65.7961 7.45942 63.3689C6.02717 59.9314 11.2658 53.068 14.7048 51.6387L14.7062 51.638Z" fill="#EFEFEF"/>
<path d="M14.0449 60.03C14.188 61.1344 14.3289 62.2395 14.4756 63.3431C14.5144 63.6336 14.4526 63.9988 14.9149 64.0182C14.9041 61.6873 15.0803 59.3815 15.7648 57.134C16.2889 55.4127 17.0604 53.8317 18.2388 52.4591C18.5689 52.0745 18.5574 52.0644 18.4251 51.6381C17.8923 51.9278 17.3588 52.2183 16.826 52.508C15.1824 53.818 14.5525 55.6521 14.2326 57.6243C14.1039 58.4159 14.1039 59.2276 14.0456 60.0307L14.0449 60.03Z" fill="#2655FF"/>
<path d="M29.9817 73.1184C31.7454 73.0249 33.3782 72.5698 34.7501 71.3928C35.2232 70.8298 35.697 70.2669 36.1701 69.7039L37.4888 64.4158C37.4557 63.7802 37.7613 63.6242 38.2329 63.5609C38.2329 63.5609 38.4177 63.2352 38.6967 62.8024C38.8534 62.5587 39.0404 62.2804 39.2403 62.0065C39.6904 61.3918 44.2905 55.9714 44.6896 55.8484C45.7206 55.5313 47.8244 58.8645 47.8244 58.8645C49.43 59.7374 50.2 61.7455 50.9463 63.5494C51.1513 64.0441 51.354 64.5237 51.5719 64.9601C51.8796 65.1348 51.7509 66.1931 51.8516 66.4462C51.8516 66.4462 43.4752 76.8693 39.7493 77.965C37.3594 78.6682 31.3226 75.3393 31.3226 75.3393C30.6316 74.8224 29.7077 73.7424 29.277 72.8523L29.9831 73.1169L29.9817 73.1184Z" fill="#0B2481"/>
<path d="M52.4501 61.046C53.5445 59.7137 54.17 58.1995 54.4705 56.6027C54.5518 56.7874 54.628 56.9758 54.7013 57.1671C55.278 58.6748 55.2233 60.245 55.1126 61.7901C54.8487 65.4576 52.829 67.7037 49.8114 69.9484C49.5267 70.1605 49.234 70.6667 48.8508 70.3877C49.4871 69.0065 48.9766 67.309 48.2792 66.0853C48.0728 66.0285 47.8665 65.935 47.6645 65.8128C49.4397 64.4978 51.0035 62.7823 52.4501 61.0467V61.046Z" fill="#D3D5D5"/>
<path d="M41.2887 58.1012C41.2887 58.1012 41.2872 58.1043 41.2864 58.1058C41.2942 58.0872 41.3043 58.0608 41.2887 58.1012Z" fill="#EFEFEF"/>
<path d="M46.6183 54.1876C47.3553 53.5312 48.2763 53.1113 49.2577 53.0099C49.316 53.0041 49.3699 52.9991 49.4181 52.9969C50.6368 52.9286 51.7937 53.3823 52.6744 54.3249C53.5552 54.885 54.0736 55.6953 54.4727 56.6026C54.1721 58.1995 53.5466 59.7137 52.4523 61.046C51.0056 62.7816 49.4418 64.4971 47.6666 65.8121L39.9014 60.1738L46.6183 54.1876Z" fill="#EFEFEF"/>
<path d="M21.5 71.5545C18.5823 72.4921 15.5244 72.4526 12.4672 72.5583C11.8488 71.6768 11.4929 70.6235 11.2183 69.5443C10.771 67.7849 12.0437 66.0608 14.2266 64.5337C17.2852 65.9335 19.9038 68.6297 21.4993 71.5545H21.5Z" fill="#EFEFEF"/>
<path d="M21.5001 71.5547C19.9047 68.6298 17.2861 65.9344 14.2274 64.5338C16.8676 62.6867 20.8401 61.128 24.7141 60.143C31.7905 58.3434 35.8565 59.1414 36.8451 63.029C37.8337 66.9165 32.7784 71.1197 25.8221 73.3255C17.4629 75.9757 14.0764 74.8519 12.468 72.5584C15.5252 72.4527 18.5824 72.4922 21.5009 71.5547H21.5001Z" fill="#D3D5D5"/>
<path d="M33.894 58.8063L41.097 60.1328C42.6867 60.4254 44.1952 61.0912 45.4103 62.1086C46.258 62.8182 46.8059 63.5774 46.7023 64.3187C46.7023 64.3187 46.4154 66.8574 43.502 64.5279L42.7248 64.0397C42.6802 64.0412 42.6349 64.0405 42.5889 64.0376C43.5056 64.7681 44.7402 65.9817 44.7955 67.2558C44.8401 68.281 43.5423 68.8282 42.6385 68.189L41.2401 67.2004C41.1588 67.1975 41.0776 67.1903 40.9956 67.1774L40.9568 67.1716C41.7017 68.0373 42.9311 69.7823 41.3012 70.3208C40.7547 70.5012 40.14 70.4128 39.6467 70.1116L38.8745 69.9289C39.5864 71.4352 38.5913 72.7653 36.527 71.6739L32.7875 67.9237C33.8854 65.3195 34.2564 62.366 34.0357 59.5224C34.0162 59.2973 33.9717 59.0522 33.8947 58.8063H33.894Z" fill="#2655FF"/>
<path d="M28.7993 59.0593C32.0758 60.3873 35.0719 62.4536 36.832 65.5136C36.3187 67.5915 35.4048 69.4759 34.2098 70.0051C30.5106 71.6444 18.7103 65.3411 18.7103 65.3411C18.4328 62.6772 23.7994 60.1601 28.7993 59.0593Z" fill="#D3D5D5"/>
<path d="M28.8004 59.0594C32.729 58.1945 36.4312 58.2045 36.9913 59.7065C37.4666 60.9805 37.3673 63.3517 36.8331 65.513C35.0723 62.453 32.0769 60.3866 28.8004 59.0587V59.0594Z" fill="#EFEFEF"/>
<path d="M39.5874 73.8474C41.5431 71.9011 43.4312 69.8887 45.2488 67.8129C45.6033 67.4082 46.2346 67.337 46.6545 67.6886C47.0614 68.0294 47.1355 68.6872 46.7789 69.0942C44.9612 71.1699 43.0731 73.1823 41.1174 75.1286C40.7364 75.5082 40.1511 75.6211 39.7118 75.253C39.3271 74.9309 39.2034 74.2291 39.5874 73.8474Z" fill="#2655FF"/>
<path d="M39.2844 24.4108C37.5351 24.4986 36.0439 25.1528 34.9848 26.5664C34.4045 27.3407 34.0486 28.3228 34.9208 29.0706C35.8418 29.86 36.4393 29.1202 37.0641 28.3947C38.2591 27.0071 40.1537 27.0826 41.3904 28.5479C41.9936 29.2625 42.5451 30.0383 43.5215 29.2633C44.4641 28.5155 44.0737 27.5808 43.5503 26.7713C42.558 25.237 41.1826 24.3346 39.2837 24.4108H39.2844Z" fill="#00FF9E"/>
<path d="M22.1138 69.1482C22.1138 69.1482 17.1203 63.0577 14.7102 64.2087C14.7102 64.2087 15.3243 56.5509 26 59.4297L22.1145 69.1482H22.1138Z" fill="#0B2481"/>
<path d="M21.2954 64.3108C21.9518 62.7355 23.4783 59.408 24.7969 59.05C27.0596 58.4352 31.3369 61.6628 33.1913 63.2726C34.6832 64.5703 35.899 65.9163 36.5066 67.1155C37.0854 68.2558 37.4477 70.2898 37.4873 72.3267C37.5017 73.0708 37.3586 73.7704 37.0954 74.3909C31.0954 72.0247 24.3576 70.0216 21.2954 64.3115V64.3108Z" fill="#EFEFEF"/>
<path d="M20.9503 65.1829C20.9568 65.1657 20.9632 65.1484 20.9697 65.1319C20.9697 65.1319 21.0912 64.8076 21.2976 64.3115C24.3598 70.0217 31.0976 72.0248 37.0977 74.3909C36.3046 76.2574 34.4201 77.4114 32.4536 76.9476L30.764 76.5493C29.2224 76.1862 27.7413 75.5578 26.3759 74.6821C25.2363 73.9516 24.101 73.1888 22.9693 72.395C20.7964 70.8708 19.9394 67.8137 20.9496 65.1829H20.9503Z" fill="#D3D5D5"/>
</g>
<defs>
<clipPath id="clip0_5164_1120">
<rect width="67.0506" height="93" fill="white" transform="matrix(-1 0 0 1 67.0508 0)"/>
</clipPath>
</defs>
</svg>
